<svg xmlns="http://www.w3.org/2000/svg" width="300" height="300" viewBox="0 0 300 300" version="1.1">
    <path
        d="M 133 13.648 C 131.625 13.854, 127.800 14.502, 124.500 15.086 C 121.200 15.671, 114.875 17.188, 110.444 18.458 C 106.013 19.729, 98.423 22.471, 93.578 24.552 C 88.733 26.634, 80.940 30.741, 76.259 33.679 C 71.579 36.618, 64.152 42.054, 59.754 45.761 C 55.357 49.467, 49.097 55.582, 45.843 59.349 C 42.589 63.116, 37.753 69.420, 35.096 73.357 C 32.439 77.295, 28.379 84.269, 26.072 88.857 C 23.766 93.444, 20.367 101.765, 18.519 107.349 C 16.671 112.932, 14.362 122, 13.387 127.500 C 12.319 133.529, 11.615 142.463, 11.615 150 C 11.615 157.537, 12.319 166.471, 13.387 172.500 C 14.362 178, 16.673 187.072, 18.522 192.660 C 20.371 198.248, 23.542 206.123, 25.569 210.160 C 27.595 214.197, 31.280 220.650, 33.757 224.500 C 36.234 228.350, 41.106 234.875, 44.585 239 C 48.064 243.125, 53.518 248.789, 56.705 251.586 C 59.892 254.383, 65.650 258.960, 69.500 261.757 C 73.350 264.554, 81 269.148, 86.500 271.965 C 92 274.782, 101.385 278.634, 107.355 280.524 C 113.324 282.415, 123.224 284.702, 129.355 285.608 C 137.453 286.804, 144.191 287.105, 154 286.710 C 161.425 286.410, 171.029 285.426, 175.341 284.523 C 179.654 283.620, 187.303 281.535, 192.338 279.890 C 197.373 278.244, 205.494 274.880, 210.383 272.414 C 215.273 269.948, 222.700 265.593, 226.887 262.737 C 231.074 259.881, 239.460 252.585, 245.522 246.522 C 251.585 240.460, 258.860 232.106, 261.689 227.957 C 264.519 223.808, 268.922 216.248, 271.475 211.157 C 274.027 206.066, 277.638 197.254, 279.498 191.575 C 281.359 185.895, 283.583 176.522, 284.441 170.746 C 285.298 164.969, 285.997 155.576, 285.994 149.872 C 285.991 144.167, 285.313 135, 284.487 129.500 C 283.662 124, 281.609 115.058, 279.926 109.629 C 278.244 104.200, 275.104 96.048, 272.949 91.513 C 270.795 86.978, 266.301 79.109, 262.963 74.025 C 259.625 68.942, 252.595 60.352, 247.341 54.937 C 242.086 49.522, 233.784 42.259, 228.891 38.796 C 223.998 35.333, 215.833 30.374, 210.747 27.777 C 205.661 25.179, 196.550 21.461, 190.500 19.515 C 184.450 17.569, 175 15.309, 169.500 14.494 C 164 13.679, 154.100 13.070, 147.500 13.142 C 140.900 13.214, 134.375 13.441, 133 13.648 M 128.500 16.583 C 123.550 17.348, 115.450 19.117, 110.500 20.515 C 105.550 21.913, 96.100 25.706, 89.500 28.943 C 82.900 32.181, 73.771 37.576, 69.213 40.932 C 64.655 44.288, 57.643 50.289, 53.631 54.267 C 49.619 58.245, 43.822 64.875, 40.748 69 C 37.675 73.125, 33.337 79.726, 31.109 83.668 C 28.881 87.610, 25.464 94.687, 23.516 99.394 C 21.567 104.101, 18.745 112.800, 17.245 118.726 C 14.714 128.717, 14.516 130.990, 14.508 150 C 14.500 169.255, 14.671 171.154, 17.307 181.265 C 18.850 187.186, 21.674 195.902, 23.582 200.634 C 25.490 205.366, 28.900 212.447, 31.159 216.369 C 33.419 220.291, 37.092 225.975, 39.321 229 C 41.550 232.025, 45.564 237.037, 48.240 240.138 C 50.916 243.239, 56.569 248.693, 60.803 252.258 C 65.036 255.823, 71.650 260.766, 75.500 263.242 C 79.350 265.718, 85.425 269.218, 89 271.018 C 92.575 272.818, 99.972 275.800, 105.438 277.643 C 110.904 279.486, 119.004 281.691, 123.438 282.542 C 127.872 283.393, 136.675 284.344, 143 284.656 C 150.916 285.047, 158.329 284.717, 166.785 283.597 C 173.541 282.702, 183.332 280.605, 188.543 278.935 C 193.754 277.266, 201.725 274.181, 206.258 272.080 C 210.791 269.978, 218.775 265.450, 224 262.017 C 230.197 257.945, 237.328 251.903, 244.510 244.638 C 250.565 238.512, 257.630 230.313, 260.211 226.417 C 262.791 222.522, 266.702 215.997, 268.902 211.917 C 271.103 207.838, 274.698 199.100, 276.893 192.500 C 279.087 185.900, 281.584 175.717, 282.442 169.872 C 283.299 164.026, 284 155.084, 284 150 C 284 144.916, 283.299 135.974, 282.442 130.128 C 281.584 124.283, 279.142 114.265, 277.015 107.867 C 274.888 101.469, 271.715 93.369, 269.964 89.867 C 268.213 86.365, 264.298 79.745, 261.264 75.156 C 258.230 70.567, 251.726 62.605, 246.811 57.463 C 241.895 52.322, 234.581 45.593, 230.557 42.511 C 226.532 39.428, 218.869 34.492, 213.527 31.540 C 208.185 28.588, 198.343 24.362, 191.657 22.148 C 184.971 19.935, 174.717 17.421, 168.872 16.562 C 163.026 15.703, 153.576 15.044, 147.872 15.097 C 142.167 15.150, 133.450 15.819, 128.500 16.583 M 140.198 32.250 C 140.500 37.500, 140.500 37.500, 144.750 37.807 C 148.062 38.047, 149 37.771, 149 36.557 C 149 35.487, 148.044 35, 145.941 35 C 144.156 35, 143.139 34.583, 143.500 34 C 143.840 33.450, 145.243 33, 146.618 33 C 148.030 33, 148.849 32.565, 148.500 32 C 148.160 31.450, 147.009 31, 145.941 31 C 144.873 31, 144 30.550, 144 30 C 144 29.450, 145.125 29, 146.500 29 C 147.875 29, 149 28.550, 149 28 C 149 27.450, 146.951 27, 144.448 27 C 139.895 27, 139.895 27, 140.198 32.250 M 152.648 31.553 C 152.297 34.113, 152.259 36.610, 152.564 37.103 C 152.869 37.597, 154.891 38, 157.059 38 C 159.227 38, 161 37.550, 161 37 C 161 36.450, 159.875 36, 158.500 36 C 156.897 36, 156 35.438, 156 34.433 C 156 33.343, 156.584 33.051, 157.916 33.473 C 158.970 33.808, 160.113 33.626, 160.457 33.070 C 160.801 32.514, 159.917 31.766, 158.494 31.409 C 157.071 31.052, 156.193 30.476, 156.544 30.130 C 156.894 29.783, 158.031 29.500, 159.071 29.500 C 160.111 29.500, 161.082 29.050, 161.231 28.500 C 161.379 27.950, 159.652 27.365, 157.393 27.199 C 153.286 26.899, 153.286 26.899, 152.648 31.553 M 132.622 30.750 C 133.282 33.500, 133.282 33.500, 130.827 31.250 C 129.476 30.012, 127.592 29, 126.640 29 C 125.194 29, 125.014 29.617, 125.542 32.750 C 125.890 34.813, 126.399 37.312, 126.672 38.305 C 126.946 39.298, 127.694 39.934, 128.335 39.718 C 128.981 39.500, 129.346 38.028, 129.153 36.413 C 128.807 33.500, 128.807 33.500, 131.218 35.750 C 132.544 36.987, 134.396 38, 135.334 38 C 136.623 38, 136.912 37.392, 136.519 35.500 C 136.234 34.125, 135.766 31.875, 135.481 30.500 C 135.195 29.125, 134.287 28, 133.462 28 C 132.332 28, 132.125 28.679, 132.622 30.750 M 165.468 31.700 C 165.116 33.790, 164.753 36.128, 164.664 36.896 C 164.574 37.664, 165.063 38.489, 165.751 38.730 C 166.439 38.971, 167.400 38.117, 167.887 36.834 C 168.771 34.500, 168.771 34.500, 170.046 37.250 C 170.747 38.763, 171.973 40, 172.769 40 C 173.804 40, 174.042 39.305, 173.605 37.561 C 173.268 36.220, 173.444 34.843, 173.996 34.502 C 174.548 34.161, 175 33.017, 175 31.960 C 175 30.678, 174.084 29.834, 172.250 29.426 C 170.738 29.090, 168.737 28.608, 167.805 28.357 C 166.497 28.005, 165.963 28.769, 165.468 31.700 M 118.238 30.853 C 117.260 31.457, 117.336 32.629, 118.590 36.311 C 119.478 38.916, 120.813 41, 121.594 41 C 122.367 41, 123 40.715, 123 40.366 C 123 40.017, 122.474 37.880, 121.831 35.616 C 121.189 33.352, 120.397 31.181, 120.073 30.792 C 119.749 30.402, 118.923 30.430, 118.238 30.853 M 169 32 C 169 32.550, 169.702 33, 170.559 33 C 171.416 33, 171.840 32.550, 171.500 32 C 171.160 31.450, 170.459 31, 169.941 31 C 169.423 31, 169 31.450, 169 32 M 178.192 35.571 C 177.520 38.085, 177.228 40.560, 177.544 41.071 C 177.860 41.582, 178.470 42, 178.901 42 C 179.331 42, 180.205 40.260, 180.842 38.134 C 181.479 36.008, 182 33.533, 182 32.634 C 182 31.735, 181.418 31, 180.707 31 C 179.996 31, 178.865 33.057, 178.192 35.571 M 106.571 34.571 C 105.707 35.436, 105 37.204, 105 38.500 C 105 39.796, 105.707 41.564, 106.571 42.429 C 107.436 43.293, 109.040 44, 110.137 44 C 111.234 44, 113.002 43.534, 114.066 42.965 C 115.175 42.371, 116 40.878, 116 39.465 C 116 37.692, 115.455 37, 114.059 37 C 112.991 37, 111.809 37.500, 111.431 38.112 C 111.053 38.723, 111.299 39.567, 111.979 39.987 C 112.895 40.553, 112.916 40.934, 112.063 41.461 C 111.430 41.852, 110.235 41.610, 109.408 40.924 C 108.580 40.237, 108.038 38.736, 108.202 37.588 C 108.410 36.130, 109.228 35.500, 110.912 35.500 C 112.238 35.500, 113.513 34.938, 113.745 34.250 C 114.020 33.433, 113.122 33, 111.155 33 C 109.498 33, 107.436 33.707, 106.571 34.571 M 186.014 35.463 C 185.465 36.907, 184.751 39.144, 184.427 40.435 C 184.103 41.726, 184.325 43.083, 184.921 43.451 C 185.539 43.833, 186.473 42.915, 187.097 41.310 C 188.190 38.500, 188.190 38.500, 189.345 41.925 C 189.980 43.809, 191.043 45.527, 191.708 45.744 C 192.372 45.961, 193.609 44.477, 194.458 42.447 C 195.306 40.417, 196 38.136, 196 37.378 C 196 36.620, 195.377 36, 194.617 36 C 193.856 36, 192.936 37.013, 192.573 38.250 C 191.961 40.333, 191.822 40.246, 190.706 37.075 C 190.043 35.191, 188.940 33.467, 188.256 33.244 C 187.572 33.020, 186.563 34.019, 186.014 35.463 M 97.505 37.993 C 97.156 38.557, 97.155 39.914, 97.503 41.009 C 97.850 42.104, 97.864 43, 97.532 43 C 97.201 43, 95.929 42.344, 94.705 41.542 C 93.420 40.701, 91.931 40.425, 91.179 40.889 C 90.150 41.525, 90.352 42.670, 92.138 46.347 C 93.381 48.906, 94.732 51, 95.140 51 C 95.548 51, 96.154 50.559, 96.487 50.021 C 96.820 49.482, 96.606 48.132, 96.011 47.021 C 95.416 45.909, 95.186 45, 95.500 45 C 95.814 45, 97.203 45.742, 98.587 46.649 C 100.438 47.862, 101.398 48.002, 102.218 47.182 C 103.039 46.361, 102.847 44.988, 101.493 41.985 C 100.481 39.740, 99.312 37.693, 98.895 37.435 C 98.479 37.178, 97.853 37.429, 97.505 37.993 M 199.245 41.250 C 198.695 41.938, 197.942 43.489, 197.571 44.699 C 197.102 46.230, 197.520 47.520, 198.949 48.949 C 200.077 50.077, 202.109 51, 203.465 51 C 204.889 51, 206.372 50.173, 206.978 49.042 C 207.819 47.469, 207.642 46.879, 206.078 46.042 C 205.008 45.469, 203.847 45, 203.498 45 C 203.150 45, 203.151 45.900, 203.500 47 C 203.849 48.100, 203.710 49, 203.190 49 C 202.670 49, 201.792 48.438, 201.238 47.750 C 200.631 46.997, 200.570 45.605, 201.083 44.250 C 201.552 43.013, 202.477 42, 203.139 42 C 203.801 42, 205.168 42.747, 206.177 43.661 C 207.187 44.574, 208.307 45.027, 208.667 44.667 C 209.027 44.307, 208.504 43.110, 207.506 42.006 C 206.507 40.903, 204.465 40, 202.967 40 C 201.470 40, 199.795 40.563, 199.245 41.250 M 82.250 46.115 C 80.463 47.260, 79 48.387, 79 48.620 C 79 48.852, 80.185 50.833, 81.633 53.021 C 83.081 55.210, 84.455 57, 84.686 57 C 84.917 57, 86.691 55.923, 88.629 54.606 C 90.587 53.276, 91.692 51.928, 91.117 51.572 C 90.547 51.220, 89.184 51.493, 88.086 52.178 C 86.989 52.864, 85.782 53.115, 85.404 52.737 C 85.026 52.359, 85.793 51.154, 87.108 50.058 C 88.466 48.928, 88.931 48.052, 88.184 48.033 C 87.461 48.015, 85.998 48.466, 84.934 49.035 C 83.668 49.713, 83 49.725, 83 49.070 C 83 48.520, 83.900 47.589, 85 47 C 86.100 46.411, 87 45.495, 87 44.965 C 87 44.434, 86.662 44.008, 86.250 44.017 C 85.838 44.026, 84.037 44.970, 82.250 46.115 M 127 49.959 C 122.325 50.959, 116.146 52.718, 113.268 53.867 C 110.391 55.016, 104.991 57.492, 101.268 59.369 C 97.546 61.247, 91.652 64.882, 88.172 67.447 C 84.691 70.012, 78.914 75.113, 75.334 78.782 C 71.754 82.452, 66.407 89.087, 63.453 93.528 C 60.498 97.969, 56.663 104.932, 54.932 109.001 C 53.200 113.070, 50.639 120.697, 49.241 125.949 C 47.066 134.120, 46.702 137.595, 46.720 150 C 46.739 162.260, 47.131 165.975, 49.263 174.051 C 50.649 179.303, 53.200 186.930, 54.932 190.999 C 56.663 195.068, 60.497 202.020, 63.451 206.449 C 66.405 210.877, 71.870 217.584, 75.595 221.354 C 79.320 225.124, 84.782 229.992, 87.733 232.172 C 90.684 234.353, 96.399 237.916, 100.433 240.092 C 104.467 242.268, 111.665 245.366, 116.429 246.976 C 121.193 248.586, 128.736 250.437, 133.191 251.088 C 138.077 251.803, 146.490 252.056, 154.395 251.726 C 164.383 251.310, 169.589 250.563, 176.284 248.585 C 181.115 247.157, 187.945 244.685, 191.460 243.091 C 194.976 241.497, 201.148 238.071, 205.176 235.479 C 209.204 232.887, 216.574 226.656, 221.553 221.633 C 227.034 216.103, 232.663 209.151, 235.823 204.009 C 238.693 199.339, 242.435 191.914, 244.140 187.509 C 245.844 183.104, 248.079 175.450, 249.106 170.500 C 250.300 164.750, 250.974 157.348, 250.974 150 C 250.974 142.652, 250.300 135.250, 249.106 129.500 C 248.079 124.550, 245.844 116.896, 244.140 112.491 C 242.435 108.086, 238.718 100.709, 235.880 96.096 C 233.041 91.484, 227.552 84.376, 223.681 80.301 C 219.810 76.226, 213.686 70.667, 210.072 67.947 C 206.457 65.227, 200.125 61.258, 196 59.126 C 191.875 56.995, 184.900 54.092, 180.500 52.676 C 176.100 51.260, 169.830 49.629, 166.566 49.051 C 163.303 48.473, 154.978 48.032, 148.066 48.070 C 139.953 48.116, 132.488 48.785, 127 49.959 M 215.174 51.314 C 213.978 52.587, 213 54.355, 213 55.242 C 213 56.129, 214.154 57.762, 215.564 58.872 C 216.974 59.981, 218.793 60.633, 219.606 60.321 C 220.419 60.009, 220.916 59.248, 220.710 58.631 C 220.505 58.014, 219.473 57.507, 218.418 57.504 C 217.205 57.502, 216.500 56.805, 216.500 55.609 C 216.500 54.569, 217.255 53.242, 218.178 52.659 C 219.504 51.823, 220.284 52.115, 221.895 54.050 C 223.918 56.481, 223.934 56.483, 223.967 54.307 C 223.985 53.100, 223 51.413, 221.777 50.557 C 220.555 49.701, 219.059 49, 218.452 49 C 217.845 49, 216.370 50.042, 215.174 51.314 M 131.125 51.450 C 127.069 52.221, 121.444 53.602, 118.625 54.520 C 115.806 55.437, 110.263 57.680, 106.308 59.502 C 102.352 61.325, 96.502 64.545, 93.309 66.658 C 90.116 68.771, 84.223 73.611, 80.214 77.413 C 76.205 81.215, 70.865 87.065, 68.348 90.413 C 65.830 93.761, 61.799 100.426, 59.389 105.223 C 56.979 110.021, 53.786 117.896, 52.294 122.723 C 49.753 130.946, 49.584 132.668, 49.606 150 C 49.629 167.274, 49.812 169.092, 52.366 177.438 C 53.870 182.354, 57.137 190.320, 59.626 195.140 C 62.116 199.960, 66.305 206.746, 68.935 210.221 C 71.566 213.696, 77.095 219.681, 81.223 223.520 C 85.350 227.359, 92.392 232.701, 96.872 235.392 C 101.351 238.083, 109.012 241.785, 113.897 243.620 C 118.781 245.454, 126.990 247.639, 132.138 248.474 C 137.287 249.309, 144.929 249.994, 149.119 249.996 C 153.309 249.998, 160.666 249.315, 165.466 248.478 C 170.266 247.641, 176.963 246.042, 180.347 244.924 C 183.731 243.807, 189.979 241.149, 194.231 239.017 C 198.482 236.885, 205.340 232.599, 209.469 229.491 C 213.598 226.383, 219.492 221.064, 222.568 217.670 C 225.643 214.277, 229.942 208.800, 232.121 205.500 C 234.301 202.200, 237.689 196.148, 239.650 192.050 C 241.612 187.953, 244.369 180.303, 245.778 175.050 C 248.005 166.745, 248.339 163.480, 248.339 150 C 248.339 136.493, 248.008 133.263, 245.760 124.880 C 244.342 119.590, 241.357 111.438, 239.127 106.766 C 236.897 102.094, 232.440 94.722, 229.223 90.385 C 226.006 86.048, 220.477 79.871, 216.937 76.659 C 213.397 73.446, 207.162 68.619, 203.082 65.932 C 199.002 63.245, 192.331 59.659, 188.257 57.963 C 184.184 56.268, 177.397 53.968, 173.175 52.854 C 167.897 51.461, 161.284 50.706, 152 50.438 C 143.037 50.179, 136.022 50.519, 131.125 51.450 M 70.504 54.994 C 70.166 55.541, 71.093 57.566, 72.563 59.494 C 74.034 61.422, 75.859 63, 76.619 63 C 77.378 63, 78 62.687, 78 62.304 C 78 61.921, 76.814 59.896, 75.364 57.804 C 73.914 55.712, 72.366 54, 71.923 54 C 71.480 54, 70.842 54.447, 70.504 54.994 M 225.039 60.189 C 223.918 61.392, 223 62.867, 223 63.466 C 223 64.065, 223.701 65.555, 224.557 66.777 C 225.554 68.201, 227.151 69, 229 69 C 230.849 69, 232.446 68.201, 233.443 66.777 C 234.299 65.555, 235 63.980, 235 63.277 C 235 62.575, 234.100 61.100, 233 60 C 231.900 58.900, 230.118 58, 229.039 58 C 227.960 58, 226.160 58.985, 225.039 60.189 M 61.988 62.512 C 59.628 65.025, 59.628 65.025, 61.614 67.685 C 62.707 69.148, 64.344 70.814, 65.252 71.387 C 66.161 71.960, 67.246 72.087, 67.664 71.669 C 68.082 71.251, 67.855 69.998, 67.159 68.883 C 65.978 66.991, 66.106 66.879, 69.098 67.179 C 70.908 67.360, 72.478 66.993, 72.706 66.335 C 72.928 65.694, 72.234 64.892, 71.163 64.552 C 70.092 64.212, 68.984 63.049, 68.702 61.967 C 68.416 60.873, 67.335 60, 66.268 60 C 65.212 60, 63.286 61.131, 61.988 62.512 M 148.318 62.638 C 147.367 64.089, 146.569 66.403, 146.545 67.779 C 146.520 69.156, 145.825 70.616, 145 71.024 C 144.175 71.432, 142.197 72.156, 140.604 72.633 C 139.011 73.110, 137.211 74.293, 136.604 75.262 C 135.698 76.707, 136.004 77.425, 138.307 79.262 C 141.113 81.502, 141.113 81.502, 138.070 83.299 C 136.397 84.288, 133.855 87.098, 132.421 89.544 C 130.083 93.535, 129.542 93.916, 127.157 93.260 C 125.696 92.857, 122.955 92.608, 121.067 92.706 C 119.178 92.803, 116.478 93.742, 115.067 94.792 C 113.163 96.207, 112.421 97.772, 112.193 100.850 C 111.885 105, 111.885 105, 103.943 105 C 96.667 105, 96 105.168, 96 107 C 96 108.348, 95.333 109, 93.955 109 C 91.919 109, 91.911 109.218, 92.205 156.750 C 92.473 200.204, 92.662 204.860, 94.301 208.500 C 95.291 210.700, 97.541 214.002, 99.301 215.838 C 101.060 217.673, 104.075 219.982, 106 220.969 C 107.925 221.955, 113.100 223.745, 117.500 224.946 C 121.900 226.147, 127.472 228.001, 129.882 229.067 C 132.291 230.132, 136.946 232.835, 140.225 235.073 C 144.331 237.876, 146.702 238.905, 147.843 238.378 C 148.754 237.958, 149.950 237.572, 150.500 237.521 C 151.050 237.469, 153.525 235.940, 156 234.122 C 158.475 232.304, 162.155 229.966, 164.177 228.926 C 166.199 227.885, 171.374 226.074, 175.677 224.900 C 179.980 223.726, 186.200 221.543, 189.500 220.049 C 192.921 218.500, 197.051 215.608, 199.109 213.320 C 201.093 211.113, 203.568 207.101, 204.609 204.404 C 206.367 199.844, 206.500 196.205, 206.500 152.500 C 206.500 105.500, 206.500 105.500, 197.750 105.211 C 189 104.922, 189 104.922, 189 101.416 C 189 99.026, 188.218 97.127, 186.545 95.455 C 184.846 93.755, 182.980 93, 180.480 93 C 178.494 93, 176.048 93.439, 175.045 93.976 C 173.543 94.780, 173.007 94.432, 172 92.001 C 171.328 90.378, 168.813 87.239, 166.411 85.025 C 164.010 82.811, 161.472 80.992, 160.772 80.983 C 160.073 80.974, 160.963 80.030, 162.750 78.885 C 164.537 77.740, 166 76.225, 166 75.517 C 166 74.809, 164.947 73.540, 163.660 72.697 C 162.373 71.854, 160.022 71.014, 158.435 70.832 C 155.947 70.546, 155.529 70.048, 155.390 67.206 C 155.302 65.394, 154.433 63.031, 153.460 61.956 C 152.486 60.880, 151.320 60, 150.868 60 C 150.416 60, 149.268 61.187, 148.318 62.638 M 226.994 62.507 C 225.890 63.838, 225.922 64.351, 227.193 65.622 C 228.555 66.983, 228.891 66.966, 230.402 65.455 C 231.330 64.527, 231.919 63.258, 231.712 62.634 C 231.504 62.010, 230.655 61.368, 229.825 61.207 C 228.995 61.046, 227.721 61.631, 226.994 62.507 M 149.200 63.200 C 148.540 63.860, 148 65.382, 148 66.583 C 148 68.364, 148.540 68.739, 150.931 68.619 C 152.543 68.537, 154.179 68.154, 154.567 67.767 C 154.954 67.379, 154.525 65.923, 153.612 64.531 C 152.700 63.139, 151.604 62, 151.177 62 C 150.750 62, 149.860 62.540, 149.200 63.200 M 63.543 63.931 C 63.226 64.443, 63.362 65.106, 63.844 65.404 C 64.326 65.702, 65.009 65.658, 65.361 65.306 C 65.712 64.954, 66 64.292, 66 63.833 C 66 63.375, 65.577 63, 65.059 63 C 64.541 63, 63.859 63.419, 63.543 63.931 M 234.985 70.516 C 231.577 74.032, 231.577 74.032, 234.258 76.713 C 235.733 78.187, 237.214 79.119, 237.551 78.783 C 237.887 78.446, 237.629 77.175, 236.977 75.956 C 235.939 74.017, 236.135 73.467, 238.557 71.536 C 240.169 70.251, 241.022 68.845, 240.602 68.166 C 240.206 67.524, 239.547 67, 239.137 67 C 238.728 67, 236.859 68.582, 234.985 70.516 M 52.654 72.459 C 52.346 73.261, 53.238 75.963, 54.635 78.463 C 56.033 80.963, 57.586 82.756, 58.088 82.446 C 58.590 82.136, 59 80.997, 59 79.916 C 59 78.740, 60.004 77.569, 61.500 77 C 62.875 76.477, 64 75.631, 64 75.119 C 64 74.607, 61.895 73.471, 59.322 72.594 C 56.749 71.717, 54.322 71, 53.929 71 C 53.536 71, 52.962 71.656, 52.654 72.459 M 147.667 73.065 C 146.872 74.200, 146.445 75.985, 146.719 77.032 C 146.992 78.078, 148.067 79.204, 149.108 79.534 C 150.149 79.865, 151.877 79.856, 152.949 79.516 C 154.021 79.176, 155.186 77.988, 155.539 76.877 C 155.940 75.612, 155.528 74.136, 154.435 72.928 C 153.475 71.868, 151.885 71, 150.902 71 C 149.918 71, 148.463 71.929, 147.667 73.065 M 158 75.500 C 158 77.820, 158.468 79, 159.389 79 C 160.153 79, 161.798 78.174, 163.044 77.165 C 165.310 75.331, 165.310 75.331, 162.932 73.665 C 161.625 72.749, 159.980 72, 159.277 72 C 158.484 72, 158 73.326, 158 75.500 M 138.571 74.922 C 136.906 76.762, 136.941 76.915, 139.408 78.532 C 140.825 79.460, 142.591 79.987, 143.333 79.703 C 144.211 79.366, 144.523 78.108, 144.227 76.093 C 143.920 74.001, 143.212 73, 142.041 73 C 141.089 73, 139.527 73.865, 138.571 74.922 M 56 74.882 C 56 75.432, 56.450 76.160, 57 76.500 C 57.550 76.840, 58 76.668, 58 76.118 C 58 75.568, 57.550 74.840, 57 74.500 C 56.450 74.160, 56 74.332, 56 74.882 M 242.749 79.265 C 238.998 82.500, 238.998 82.500, 241.136 85.812 C 242.590 88.064, 243.602 88.798, 244.295 88.105 C 244.989 87.411, 244.871 86.550, 243.929 85.415 C 242.711 83.947, 242.917 83.427, 245.630 81.122 C 247.327 79.680, 248.518 77.938, 248.275 77.250 C 248.032 76.563, 247.533 76.007, 247.167 76.015 C 246.800 76.023, 244.812 77.486, 242.749 79.265 M 46 80.671 C 46 81.040, 46.788 82.231, 47.750 83.317 C 49.451 85.236, 49.421 85.276, 46.671 84.769 C 44.777 84.420, 43.663 84.714, 43.300 85.661 C 43.002 86.438, 43.587 87.991, 44.602 89.112 C 46.418 91.119, 46.406 91.140, 43.832 90.494 C 42.324 90.116, 40.935 90.296, 40.549 90.921 C 40.177 91.523, 40.904 92.390, 42.190 92.874 C 43.460 93.353, 45.962 94.063, 47.750 94.452 C 50.448 95.039, 51 94.862, 51 93.408 C 51 92.445, 50.212 90.766, 49.250 89.676 C 47.541 87.741, 47.575 87.709, 50.711 88.315 C 52.564 88.672, 54.198 88.489, 54.574 87.881 C 54.932 87.301, 53.736 85.291, 51.916 83.414 C 50.097 81.536, 48.021 80, 47.304 80 C 46.587 80, 46 80.302, 46 80.671 M 142.907 86.325 C 140.160 87.774, 137.659 90.128, 136.266 92.575 C 134.935 94.915, 134.026 98.216, 134.016 100.750 C 134 105, 134 105, 139 105 C 141.824 105, 144 105.457, 144 106.050 C 144 106.627, 143.292 108.469, 142.426 110.143 C 141.561 111.816, 141.099 113.433, 141.401 113.734 C 141.703 114.036, 142.885 112.101, 144.029 109.433 C 145.172 106.766, 146.832 101.978, 147.718 98.792 C 148.924 94.452, 149.783 93, 151.145 93 C 152.309 93, 153.186 93.988, 153.585 95.750 C 153.927 97.263, 154.525 99.850, 154.914 101.500 C 155.602 104.423, 155.791 104.508, 162.310 104.796 C 169 105.091, 169 105.091, 169 101.514 C 169 99.546, 168.380 96.488, 167.623 94.718 C 166.866 92.948, 164.953 90.291, 163.373 88.814 C 161.793 87.336, 159.233 85.649, 157.685 85.064 C 156.137 84.479, 153.170 84, 151.092 84 C 149.014 84, 145.331 85.046, 142.907 86.325 M 249.777 88.401 C 247.729 89.618, 245.765 90.902, 245.412 91.254 C 245.060 91.607, 245.760 93.493, 246.967 95.447 C 248.175 97.401, 249.625 99, 250.189 99 C 250.773 99, 250.904 98.247, 250.494 97.250 C 250.097 96.287, 249.565 94.600, 249.311 93.500 C 248.880 91.640, 248.987 91.657, 250.834 93.750 C 251.927 94.987, 253.122 96, 253.490 96 C 253.858 96, 253.872 94.537, 253.522 92.750 C 252.885 89.500, 252.885 89.500, 254.874 91.985 C 255.968 93.352, 257.137 94.196, 257.472 93.861 C 257.807 93.526, 257.119 91.620, 255.942 89.626 C 254.765 87.632, 253.734 86.042, 253.651 86.094 C 253.568 86.146, 251.824 87.184, 249.777 88.401 M 116.875 96.506 C 115.432 97.291, 114.025 98.798, 113.748 99.855 C 113.471 100.913, 113.633 102.391, 114.107 103.139 C 114.799 104.231, 114.972 104.185, 114.985 102.905 C 114.993 102.028, 115.882 100.512, 116.960 99.536 C 118.365 98.265, 119.709 97.959, 121.710 98.456 C 123.244 98.837, 125.479 100.062, 126.676 101.179 C 127.873 102.296, 129.335 102.911, 129.926 102.546 C 130.517 102.181, 131 101.034, 131 99.998 C 131 98.961, 130 97.413, 128.777 96.557 C 127.555 95.701, 124.968 95.018, 123.027 95.040 C 121.087 95.062, 118.319 95.722, 116.875 96.506 M 177 95.689 C 176.175 96.003, 174.713 96.947, 173.750 97.785 C 172.787 98.624, 172.007 99.578, 172.015 99.905 C 172.024 100.232, 172.429 101.130, 172.917 101.900 C 173.648 103.055, 174.281 102.924, 176.537 101.150 C 178.040 99.967, 180.309 99, 181.578 99 C 182.848 99, 184.587 100, 185.443 101.223 C 186.967 103.398, 187 103.401, 187 101.377 C 187 100.240, 186.213 98.600, 185.250 97.733 C 184.287 96.866, 182.375 95.922, 181 95.636 C 179.625 95.350, 177.825 95.374, 177 95.689 M 37.035 97.934 C 36.466 98.998, 36 100.798, 36 101.934 C 36 103.478, 36.640 104, 38.531 104 C 39.924 104, 41.322 103.325, 41.638 102.500 C 41.955 101.675, 42.841 101, 43.607 101 C 44.373 101, 45 101.265, 45 101.590 C 45 101.914, 43.987 103.024, 42.750 104.056 C 40.500 105.933, 40.500 105.933, 42.771 105.967 C 44.261 105.989, 45.447 105.113, 46.217 103.422 C 47.030 101.640, 47.078 100.347, 46.374 99.232 C 45.815 98.345, 44.855 97.452, 44.241 97.247 C 43.627 97.042, 42.159 97.841, 40.979 99.021 C 39.799 100.201, 38.592 100.926, 38.298 100.631 C 38.003 100.336, 38.490 99.367, 39.381 98.476 C 40.271 97.586, 41 96.664, 41 96.429 C 41 96.193, 40.341 96, 39.535 96 C 38.730 96, 37.605 96.870, 37.035 97.934 M 117.750 100.080 C 116.787 100.641, 116 101.977, 116 103.050 C 116 104.767, 116.718 105, 122 105 C 125.391 105, 128 104.559, 128 103.985 C 128 103.427, 126.537 102.079, 124.750 100.989 C 122.963 99.899, 121.050 99.019, 120.500 99.034 C 119.950 99.049, 118.713 99.519, 117.750 100.080 M 253.750 100.080 C 252.644 100.725, 252 102.311, 252 104.395 C 252 106.372, 252.766 108.384, 253.917 109.425 C 255.451 110.813, 256.252 110.935, 257.930 110.038 C 259.632 109.127, 259.829 108.548, 258.978 106.958 C 258.401 105.881, 257.469 105, 256.906 105 C 256.343 105, 256.160 105.450, 256.500 106 C 256.840 106.550, 256.668 107, 256.118 107 C 255.568 107, 254.828 106.530, 254.473 105.956 C 254.118 105.382, 254.372 104.257, 255.036 103.456 C 255.701 102.655, 257.034 102, 257.997 102 C 259.153 102, 259.959 103.044, 260.363 105.066 C 260.704 106.770, 261.426 107.855, 261.988 107.507 C 262.545 107.163, 263 106.109, 263 105.163 C 263 104.218, 262.299 102.445, 261.443 101.223 C 260.587 100, 258.900 99.014, 257.693 99.030 C 256.487 99.047, 254.713 99.519, 253.750 100.080 M 177.043 102.455 C 174.651 105, 174.651 105, 179.895 105 C 184.761 105, 185.116 104.838, 184.820 102.750 C 184.599 101.195, 183.718 100.409, 181.967 100.205 C 180.283 100.008, 178.632 100.762, 177.043 102.455 M 150 102.514 C 150 103.346, 150.410 104.809, 150.911 105.764 C 151.413 106.719, 152.585 109.665, 153.517 112.311 C 154.449 114.957, 155.433 116.900, 155.704 116.630 C 155.974 116.359, 155.251 113.615, 154.098 110.531 C 152.944 107.448, 152 104.042, 152 102.962 C 152 101.883, 151.550 101, 151 101 C 150.450 101, 150 101.681, 150 102.514 M 118.336 111.638 C 120.351 114.444, 122 117.473, 122 118.369 C 122 119.266, 121.298 120, 120.441 120 C 119.584 120, 119.160 120.450, 119.500 121 C 119.840 121.550, 121.441 122, 123.059 122 C 124.900 122, 126 121.481, 126 120.613 C 126 119.850, 124.537 117.075, 122.750 114.447 C 120.963 111.818, 118.414 108.963, 117.086 108.102 C 115.037 106.775, 115.226 107.310, 118.336 111.638 M 129.011 109.979 C 128.428 111.068, 128.237 113.097, 128.587 114.489 C 128.936 115.880, 129.509 117.197, 129.861 117.414 C 130.212 117.631, 130.500 115.602, 130.500 112.905 C 130.500 110.207, 130.403 108, 130.285 108 C 130.167 108, 129.594 108.891, 129.011 109.979 M 160 108.941 C 160 109.459, 160.450 110.160, 161 110.500 C 161.550 110.840, 162 110.416, 162 109.559 C 162 108.702, 161.550 108, 161 108 C 160.450 108, 160 108.423, 160 108.941 M 34.335 109.695 C 33.144 109.927, 31.928 110.746, 31.632 111.515 C 31.312 112.350, 32.778 114.311, 35.268 116.380 C 37.563 118.286, 39.777 119.638, 40.188 119.384 C 40.598 119.130, 40.669 117.597, 40.345 115.977 C 39.911 113.805, 40.183 112.867, 41.378 112.408 C 42.270 112.066, 43 111.159, 43 110.393 C 43 109.460, 41.926 109.045, 39.750 109.136 C 37.962 109.211, 35.526 109.462, 34.335 109.695 M 180.094 113.671 C 178.392 116.241, 177 119.139, 177 120.112 C 177 121.086, 177.409 122.135, 177.910 122.444 C 178.410 122.753, 179.514 122.740, 180.363 122.414 C 181.573 121.950, 181.666 121.438, 180.794 120.042 C 179.911 118.628, 180.215 117.309, 182.271 113.631 C 183.694 111.084, 184.483 109, 184.024 109 C 183.564 109, 181.796 111.102, 180.094 113.671 M 260.500 112.834 C 258.300 113.670, 256.315 114.497, 256.090 114.671 C 255.864 114.845, 256.220 116.790, 256.880 118.994 C 257.540 121.197, 258.548 123, 259.120 123 C 259.754 123, 259.902 121.832, 259.500 120 C 259.060 117.997, 259.231 117, 260.014 117 C 260.659 117, 261.423 117.900, 261.710 119 C 261.998 120.100, 262.667 121, 263.196 121 C 263.744 121, 263.889 119.600, 263.532 117.750 C 262.948 114.721, 263.008 114.629, 264.417 116.392 C 265.248 117.432, 266.107 118.782, 266.327 119.392 C 266.547 120.001, 267.058 120.193, 267.463 119.817 C 267.868 119.441, 267.672 117.535, 267.027 115.581 C 266.382 113.627, 265.549 111.867, 265.177 111.671 C 264.805 111.475, 262.700 111.998, 260.500 112.834 M 35.500 113 C 35.840 113.550, 36.541 114, 37.059 114 C 37.577 114, 38 113.550, 38 113 C 38 112.450, 37.298 112, 36.441 112 C 35.584 112, 35.160 112.450, 35.500 113 M 28.504 121.250 C 28.266 121.938, 27.942 123.811, 27.785 125.414 C 27.520 128.120, 27.838 128.415, 32.254 129.561 C 34.869 130.240, 37.173 130.504, 37.373 130.147 C 37.573 129.791, 38.042 127.813, 38.414 125.750 C 38.836 123.413, 38.704 122, 38.064 122 C 37.500 122, 36.756 123.125, 36.411 124.500 C 36.066 125.875, 35.350 127, 34.820 127 C 34.290 127, 34.002 125.896, 34.178 124.546 C 34.355 123.196, 34.050 121.959, 33.500 121.796 C 32.950 121.633, 32.356 122.513, 32.180 123.750 C 32.005 124.987, 31.386 126, 30.805 126 C 30.166 126, 29.987 124.817, 30.350 123 C 30.699 121.257, 30.528 120, 29.944 120 C 29.390 120, 28.742 120.563, 28.504 121.250 M 107.537 123.940 C 107.234 124.431, 107.429 125.998, 107.971 127.423 C 108.513 128.849, 109.528 129.899, 110.228 129.757 C 111.231 129.554, 111.556 135.994, 111.764 160.179 C 112.029 190.857, 112.029 190.857, 109.764 191.179 C 107.973 191.433, 107.510 192.127, 107.548 194.500 C 107.597 197.500, 107.597 197.500, 151.498 197.500 C 195.400 197.500, 195.400 197.500, 195.404 194.500 C 195.407 192.163, 194.917 191.429, 193.190 191.179 C 190.971 190.857, 190.971 190.857, 191.236 160.179 C 191.482 131.598, 191.620 129.520, 193.250 129.794 C 194.638 130.027, 195 129.367, 195 126.607 C 195 123.127, 195 123.127, 151.544 123.087 C 127.091 123.065, 107.848 123.437, 107.537 123.940 M 117.357 130.512 C 117.144 131.068, 117.089 144.793, 117.235 161.012 C 117.500 190.500, 117.500 190.500, 151.250 190.763 C 185 191.027, 185 191.027, 185 160.513 C 185 130, 185 130, 163.750 129.938 C 152.063 129.903, 136.930 129.791, 130.123 129.688 C 122.524 129.572, 117.595 129.891, 117.357 130.512 M 167.709 150.624 C 167.319 151.014, 167 152.833, 167 154.667 C 167 157.718, 167.259 158, 170.060 158 C 172.985 158, 173.107 157.834, 172.810 154.250 C 172.571 151.363, 172.030 150.433, 170.459 150.208 C 169.336 150.047, 168.099 150.235, 167.709 150.624 M 147 164.500 C 147 169, 147 169, 152.500 169 C 158 169, 158 169, 158 164.500 C 158 160, 158 160, 152.500 160 C 147 160, 147 160, 147 164.500 M 129 169.500 C 129 175, 129 175, 134 175 C 139 175, 139 175, 139 181.563 C 139 188.127, 139 188.127, 142.250 187.813 C 145.500 187.500, 145.500 187.500, 145.782 175.750 C 146.063 164, 146.063 164, 137.532 164 C 129 164, 129 164, 129 169.500 M 129 181.500 C 129 187, 129 187, 133.500 187 C 138 187, 138 187, 138 181.500 C 138 176, 138 176, 133.500 176 C 129 176, 129 176, 129 181.500 M 129.200 204.200 C 128.540 204.860, 128 206.471, 128 207.780 C 128 209.629, 128.894 210.512, 132 211.732 C 134.200 212.596, 136 213.685, 136 214.152 C 136 214.618, 135.352 215, 134.559 215 C 133.766 215, 132.840 214.550, 132.500 214 C 132.160 213.450, 130.784 213, 129.441 213 C 128.098 213, 127 213.450, 127 214 C 127 214.550, 127.900 215.900, 129 217 C 130.100 218.100, 132.250 219, 133.777 219 C 135.305 219, 137.555 218.299, 138.777 217.443 C 140 216.587, 141 214.842, 141 213.566 C 141 212.289, 140.435 210.776, 139.744 210.203 C 139.054 209.630, 137.254 208.851, 135.744 208.472 C 134.235 208.093, 133 207.382, 133 206.892 C 133 206.401, 133.423 206, 133.941 206 C 134.459 206, 135.160 206.450, 135.500 207 C 135.840 207.550, 136.991 208, 138.059 208 C 139.127 208, 140 207.415, 140 206.700 C 140 205.985, 139.460 204.860, 138.800 204.200 C 138.140 203.540, 135.980 203, 134 203 C 132.020 203, 129.860 203.540, 129.200 204.200 M 143.208 210.750 C 143.471 217.736, 143.697 218.500, 145.500 218.500 C 146.938 218.500, 147.589 217.728, 147.816 215.750 C 147.990 214.238, 148.440 213.003, 148.816 213.006 C 149.192 213.010, 150.267 214.360, 151.203 216.006 C 152.148 217.665, 153.745 219, 154.787 219 C 155.821 219, 156.949 218.718, 157.293 218.373 C 157.638 218.028, 157.225 216.402, 156.375 214.758 C 155.264 212.610, 155.135 211.465, 155.915 210.685 C 156.512 210.088, 157 208.581, 157 207.335 C 157 206.090, 156.130 204.605, 155.066 204.035 C 154.002 203.466, 150.833 203, 148.024 203 C 142.916 203, 142.916 203, 143.208 210.750 M 159.208 210.750 C 159.438 216.842, 159.821 218.500, 161 218.500 C 161.985 218.500, 162.704 217.125, 163.093 214.500 C 163.686 210.500, 163.686 210.500, 164.463 213.728 C 164.891 215.503, 165.842 217.454, 166.577 218.064 C 167.311 218.673, 168.365 218.893, 168.917 218.551 C 169.470 218.209, 170.265 216.258, 170.684 214.215 C 171.445 210.500, 171.445 210.500, 171.973 214.500 C 172.323 217.154, 173.005 218.500, 174 218.500 C 175.179 218.500, 175.562 216.842, 175.792 210.750 C 176.084 203, 176.084 203, 173.017 203 C 170.405 203, 169.860 203.448, 169.346 206.021 C 169.014 207.682, 168.399 209.253, 167.980 209.512 C 167.562 209.771, 166.925 208.411, 166.564 206.491 C 165.964 203.293, 165.616 203, 162.413 203 C 158.916 203, 158.916 203, 159.208 210.750 M 148 208 C 148 208.550, 148.648 209, 149.441 209 C 150.234 209, 151.160 208.550, 151.500 208 C 151.840 207.450, 151.191 207, 150.059 207 C 148.927 207, 148 207.450, 148 208 M 64.500 233.467 C 60.500 236.873, 60.500 236.873, 63.718 240.135 C 65.488 241.929, 67.248 243.086, 67.628 242.705 C 68.009 242.324, 67.502 241.107, 66.500 240 C 65.498 238.893, 64.973 237.693, 65.333 237.333 C 65.693 236.973, 66.815 237.427, 67.825 238.342 C 68.836 239.256, 69.964 239.702, 70.333 239.333 C 70.702 238.964, 70.256 237.836, 69.342 236.825 C 68.427 235.815, 67.973 234.693, 68.333 234.333 C 68.693 233.973, 69.893 234.498, 71 235.500 C 72.107 236.502, 73.324 237.009, 73.705 236.628 C 74.086 236.248, 73.071 234.614, 71.449 232.999 C 68.500 230.061, 68.500 230.061, 64.500 233.467 M 72.625 241.872 C 68.851 245.737, 68.851 245.737, 71.560 247.869 C 73.050 249.041, 75.092 250, 76.096 250 C 77.100 250, 78.840 249.015, 79.961 247.811 C 81.082 246.608, 82 245.117, 82 244.499 C 82 243.880, 80.740 242.167, 79.199 240.691 C 76.398 238.008, 76.398 238.008, 72.625 241.872 M 220 238.590 C 220 238.915, 221.238 240.930, 222.750 243.069 C 224.262 245.208, 225.812 246.967, 226.194 246.979 C 226.576 246.990, 228.151 245.913, 229.694 244.585 C 231.237 243.257, 232.206 241.876, 231.847 241.516 C 231.488 241.156, 230.276 241.435, 229.153 242.136 C 227.356 243.259, 226.856 243.087, 224.983 240.706 C 223.813 239.218, 222.213 238, 221.427 238 C 220.642 238, 220 238.266, 220 238.590 M 213.536 243.382 C 210.571 245.754, 210.571 245.754, 213.300 249.877 C 214.801 252.145, 216.359 253.998, 216.764 253.995 C 217.169 253.992, 218.850 252.908, 220.500 251.585 C 222.150 250.262, 223.201 248.877, 222.836 248.509 C 222.470 248.140, 221.194 248.361, 220 249 C 218.806 249.639, 217.530 249.864, 217.166 249.499 C 216.801 249.135, 217.370 248.203, 218.429 247.429 C 219.488 246.654, 220.088 245.755, 219.763 245.429 C 219.437 245.104, 218.233 245.340, 217.086 245.954 C 215.939 246.568, 215 246.660, 215 246.158 C 215 245.656, 215.675 244.685, 216.500 244 C 217.325 243.315, 218 242.360, 218 241.878 C 218 241.395, 217.662 241.002, 217.250 241.005 C 216.838 241.008, 215.166 242.077, 213.536 243.382 M 75.200 243.200 C 74.540 243.860, 74 244.985, 74 245.700 C 74 246.415, 74.620 247, 75.378 247 C 76.135 247, 77.299 246.345, 77.964 245.544 C 78.628 244.743, 78.882 243.618, 78.527 243.044 C 78.172 242.470, 77.549 242, 77.141 242 C 76.733 242, 75.860 242.540, 75.200 243.200 M 82.009 248.485 C 80.771 250.488, 80.107 252.762, 80.447 253.833 C 80.772 254.858, 82.181 256.217, 83.576 256.853 C 85.194 257.590, 86.728 257.677, 87.807 257.093 C 88.738 256.589, 90.295 254.818, 91.266 253.157 C 92.484 251.074, 92.691 249.927, 91.932 249.458 C 91.326 249.084, 89.556 250.290, 87.998 252.139 C 85.894 254.634, 84.869 255.212, 84.016 254.384 C 83.154 253.546, 83.370 252.440, 84.882 249.954 C 85.990 248.132, 86.668 246.272, 86.389 245.821 C 86.110 245.369, 85.495 245, 85.023 245 C 84.550 245, 83.194 246.568, 82.009 248.485 M 203.200 249.200 C 202.540 249.860, 202 251.590, 202 253.045 C 202 254.500, 202.823 256.435, 203.829 257.345 C 204.835 258.255, 206.410 259, 207.329 259 C 208.248 259, 209.900 258.100, 211 257 C 212.100 255.900, 213 254.550, 213 254 C 213 253.450, 212.487 253, 211.860 253 C 211.233 253, 210.173 253.748, 209.505 254.662 C 208.758 255.685, 207.629 256.071, 206.574 255.667 C 205.496 255.253, 204.979 254.172, 205.180 252.754 C 205.385 251.312, 206.189 250.500, 207.414 250.500 C 208.467 250.500, 209.517 249.938, 209.747 249.250 C 210.018 248.442, 209.147 248, 207.283 248 C 205.697 248, 203.860 248.540, 203.200 249.200 M 195.995 254.009 C 195.192 255.511, 194.299 255.862, 192.460 255.401 C 190.991 255.032, 190 255.216, 190 255.856 C 190 256.447, 190.943 257.434, 192.095 258.051 C 193.823 258.976, 194.079 259.768, 193.553 262.571 C 193.043 265.286, 193.205 265.858, 194.359 265.416 C 195.153 265.111, 196.039 263.959, 196.327 262.856 C 196.750 261.242, 197.218 261.046, 198.730 261.855 C 199.763 262.408, 201.205 262.491, 201.936 262.040 C 202.937 261.421, 202.595 260.781, 200.542 259.435 C 198.324 257.982, 197.924 257.129, 198.385 254.826 C 198.696 253.272, 198.527 252, 198.010 252 C 197.493 252, 196.587 252.904, 195.995 254.009 M 94.313 253.786 C 93.659 254.201, 92.679 255.714, 92.133 257.149 C 91.389 259.108, 91.512 260.286, 92.628 261.879 C 93.585 263.246, 95.189 264, 97.140 264 C 99.118 264, 100.021 263.567, 99.747 262.750 C 99.517 262.063, 98.692 261.488, 97.914 261.474 C 97.136 261.459, 95.936 261.094, 95.247 260.663 C 94.334 260.091, 94.275 259.354, 95.032 257.939 C 95.603 256.873, 96.582 256, 97.206 256 C 97.831 256, 99.165 256.745, 100.171 257.655 C 101.888 259.209, 102 259.180, 102 257.190 C 102 256.024, 101.130 254.605, 100.066 254.035 C 99.002 253.466, 97.539 253.007, 96.816 253.015 C 96.092 253.024, 94.966 253.370, 94.313 253.786 M 183.250 258.119 C 181.463 258.635, 180 259.555, 180 260.163 C 180 260.771, 180.521 263.008, 181.158 265.134 C 181.795 267.260, 182.853 269, 183.509 269 C 184.165 269, 186.119 268.506, 187.851 267.902 C 189.583 267.298, 191 266.363, 191 265.823 C 191 265.252, 189.743 265.117, 188 265.500 C 185.997 265.940, 185 265.769, 185 264.986 C 185 264.341, 185.900 263.577, 187 263.290 C 188.100 263.002, 189 262.320, 189 261.775 C 189 261.216, 187.908 261.057, 186.500 261.411 C 185.125 261.756, 184 261.610, 184 261.086 C 184 260.563, 184.900 259.849, 186 259.500 C 187.100 259.151, 188 258.446, 188 257.933 C 188 257.420, 187.662 257.041, 187.250 257.090 C 186.838 257.140, 185.037 257.603, 183.250 258.119 M 104.656 261.840 C 102.645 263.900, 101 265.903, 101 266.292 C 101 266.681, 102.413 267, 104.140 267 C 105.975 267, 107.811 267.727, 108.558 268.748 C 109.261 269.710, 110.056 270.273, 110.325 269.998 C 110.593 269.724, 111.125 267.402, 111.507 264.839 C 112.103 260.832, 111.928 260.032, 110.256 259.137 C 108.635 258.269, 107.704 258.718, 104.656 261.840 M 115 261.800 C 115 262.240, 115.486 263.086, 116.080 263.680 C 116.830 264.430, 116.855 265.866, 116.161 268.380 C 115.279 271.574, 115.374 272, 116.969 272 C 118.243 272, 118.971 270.969, 119.431 268.515 C 119.991 265.530, 120.453 265.060, 122.647 265.242 C 125.054 265.441, 125.175 265.705, 124.641 269.605 C 124.072 273.756, 124.072 273.756, 128.169 274.411 C 130.423 274.771, 132.477 274.856, 132.734 274.600 C 132.990 274.343, 132.904 273.653, 132.541 273.067 C 132.179 272.480, 131.009 272, 129.941 272 C 128.873 272, 128 271.550, 128 271 C 128 270.450, 129.125 270, 130.500 270 C 131.875 270, 133 269.550, 133 269 C 133 268.450, 131.875 268, 130.500 268 C 129.125 268, 128 267.550, 128 267 C 128 266.450, 129.350 266, 131 266 C 132.650 266, 134 265.550, 134 265 C 134 264.450, 132.032 264, 129.626 264 C 127.220 264, 123.338 263.325, 121 262.500 C 118.662 261.675, 116.355 261, 115.874 261 C 115.393 261, 115 261.360, 115 261.800 M 107.583 262.866 C 107.152 263.563, 107.070 264.403, 107.400 264.733 C 107.730 265.063, 108.272 265.061, 108.604 264.729 C 108.936 264.397, 109.019 263.557, 108.787 262.862 C 108.449 261.846, 108.213 261.846, 107.583 262.866 M 166.635 262.712 C 165.092 263.108, 164.874 263.822, 165.374 266.846 C 165.706 268.855, 165.983 271.063, 165.989 271.750 C 165.995 272.438, 167.155 273, 168.566 273 C 169.977 273, 172.002 272.534, 173.066 271.965 C 174.294 271.308, 175 269.873, 175 268.036 C 175 266.445, 174.293 264.436, 173.429 263.571 C 172.564 262.707, 171.102 262.052, 170.179 262.116 C 169.255 262.180, 167.661 262.448, 166.635 262.712 M 158.967 266.750 C 158.933 269.500, 158.933 269.500, 157.056 267.250 C 156.024 266.012, 154.464 265, 153.590 265 C 152.447 265, 152 265.961, 152 268.418 C 152 270.298, 152.273 272.548, 152.607 273.418 C 152.941 274.288, 153.849 275, 154.626 275 C 155.660 275, 155.861 274.263, 155.378 272.250 C 154.718 269.500, 154.718 269.500, 157.173 271.750 C 158.524 272.988, 160.444 274, 161.439 274 C 162.934 274, 163.141 273.454, 162.625 270.875 C 162.281 269.156, 162 266.906, 162 265.875 C 162 264.844, 161.325 264, 160.500 264 C 159.538 264, 158.988 264.987, 158.967 266.750 M 141.569 268.250 C 140.838 270.038, 139.930 272.512, 139.552 273.750 C 139.134 275.119, 139.288 276, 139.946 276 C 140.541 276, 141.921 275.442, 143.014 274.759 C 144.580 273.781, 145.413 273.777, 146.954 274.739 C 148.028 275.410, 149.155 275.559, 149.457 275.070 C 149.759 274.581, 149.121 272.115, 148.039 269.590 C 146.882 266.892, 145.417 265, 144.485 265 C 143.612 265, 142.300 266.462, 141.569 268.250 M 168.545 267.250 C 168.919 268.488, 169.609 269.913, 170.080 270.417 C 170.584 270.958, 171.197 270.650, 171.574 269.667 C 171.926 268.750, 171.955 267.325, 171.638 266.500 C 171.322 265.675, 170.343 265, 169.464 265 C 168.271 265, 168.038 265.571, 168.545 267.250 M 143.553 269.915 C 143.231 270.436, 143.394 271.125, 143.915 271.447 C 144.436 271.769, 145.125 271.606, 145.447 271.085 C 145.769 270.564, 145.606 269.875, 145.085 269.553 C 144.564 269.231, 143.875 269.394, 143.553 269.915"
        stroke="none" fill="#2e2a2b" fill-rule="evenodd" />
    <path
        d="M 136.500 12.499 C 137.050 12.687, 144.700 13.019, 153.500 13.237 C 162.325 13.456, 167.482 13.301, 165 12.891 C 162.525 12.483, 154.875 12.150, 148 12.153 C 141.125 12.156, 135.950 12.311, 136.500 12.499 M 129.762 13.707 C 131.006 13.946, 132.806 13.937, 133.762 13.687 C 134.718 13.437, 133.700 13.241, 131.500 13.252 C 129.300 13.263, 128.518 13.468, 129.762 13.707 M 123.750 14.662 C 124.438 14.940, 125.563 14.940, 126.250 14.662 C 126.938 14.385, 126.375 14.158, 125 14.158 C 123.625 14.158, 123.063 14.385, 123.750 14.662 M 171.269 14.693 C 172.242 14.947, 173.592 14.930, 174.269 14.656 C 174.946 14.382, 174.150 14.175, 172.500 14.195 C 170.850 14.215, 170.296 14.439, 171.269 14.693 M 118.750 15.662 C 119.438 15.940, 120.563 15.940, 121.250 15.662 C 121.938 15.385, 121.375 15.158, 120 15.158 C 118.625 15.158, 118.063 15.385, 118.750 15.662 M 128.500 16.583 C 123.550 17.348, 115.450 19.117, 110.500 20.515 C 105.550 21.913, 96.100 25.706, 89.500 28.943 C 82.900 32.181, 73.771 37.576, 69.213 40.932 C 64.655 44.288, 57.643 50.289, 53.631 54.267 C 49.619 58.245, 43.822 64.875, 40.748 69 C 37.675 73.125, 33.337 79.726, 31.109 83.668 C 28.881 87.610, 25.464 94.687, 23.516 99.394 C 21.567 104.101, 18.745 112.800, 17.245 118.726 C 14.714 128.717, 14.516 130.990, 14.508 150 C 14.500 169.255, 14.671 171.154, 17.307 181.265 C 18.850 187.186, 21.674 195.902, 23.582 200.634 C 25.490 205.366, 28.900 212.447, 31.159 216.369 C 33.419 220.291, 37.092 225.975, 39.321 229 C 41.550 232.025, 45.564 237.037, 48.240 240.138 C 50.916 243.239, 56.569 248.693, 60.803 252.258 C 65.036 255.823, 71.650 260.766, 75.500 263.242 C 79.350 265.718, 85.425 269.218, 89 271.018 C 92.575 272.818, 99.972 275.800, 105.438 277.643 C 110.904 279.486, 119.004 281.691, 123.438 282.542 C 127.872 283.393, 136.675 284.344, 143 284.656 C 150.916 285.047, 158.329 284.717, 166.785 283.597 C 173.541 282.702, 183.332 280.605, 188.543 278.935 C 193.754 277.266, 201.725 274.181, 206.258 272.080 C 210.791 269.978, 218.775 265.450, 224 262.017 C 230.197 257.945, 237.328 251.903, 244.510 244.638 C 250.565 238.512, 257.630 230.313, 260.211 226.417 C 262.791 222.522, 266.702 215.997, 268.902 211.917 C 271.103 207.838, 274.698 199.100, 276.893 192.500 C 279.087 185.900, 281.584 175.717, 282.442 169.872 C 283.299 164.026, 284 155.084, 284 150 C 284 144.916, 283.299 135.974, 282.442 130.128 C 281.584 124.283, 279.142 114.265, 277.015 107.867 C 274.888 101.469, 271.715 93.369, 269.964 89.867 C 268.213 86.365, 264.298 79.745, 261.264 75.156 C 258.230 70.567, 251.726 62.605, 246.811 57.463 C 241.895 52.322, 234.581 45.593, 230.557 42.511 C 226.532 39.428, 218.869 34.492, 213.527 31.540 C 208.185 28.588, 198.343 24.362, 191.657 22.148 C 184.971 19.935, 174.717 17.421, 168.872 16.562 C 163.026 15.703, 153.576 15.044, 147.872 15.097 C 142.167 15.150, 133.450 15.819, 128.500 16.583 M 109 17.959 C 105.975 18.968, 103.950 19.835, 104.500 19.884 C 105.050 19.933, 108.200 19.120, 111.500 18.078 C 114.800 17.035, 116.825 16.169, 116 16.152 C 115.175 16.136, 112.025 16.949, 109 17.959 M 187.967 18.531 C 192.073 19.834, 195.604 20.729, 195.813 20.520 C 196.022 20.311, 193.177 19.209, 189.491 18.070 C 185.805 16.932, 182.274 16.037, 181.645 16.081 C 181.015 16.126, 183.860 17.229, 187.967 18.531 M 100 21 C 99.175 21.533, 98.950 21.969, 99.500 21.969 C 100.050 21.969, 101.175 21.533, 102 21 C 102.825 20.467, 103.050 20.031, 102.500 20.031 C 101.950 20.031, 100.825 20.467, 100 21 M 201.905 23.569 C 204.878 24.919, 207.479 25.855, 207.685 25.648 C 207.892 25.441, 205.826 24.311, 203.095 23.136 C 200.364 21.961, 197.763 21.026, 197.315 21.058 C 196.867 21.089, 198.932 22.220, 201.905 23.569 M 88.447 25.894 C 84.076 28.035, 79.600 30.549, 78.500 31.480 C 77.205 32.576, 77.773 32.438, 80.113 31.089 C 82.100 29.944, 87.050 27.459, 91.113 25.568 C 95.176 23.677, 98.026 22.101, 97.447 22.065 C 96.868 22.029, 92.818 23.752, 88.447 25.894 M 140.198 32.250 C 140.500 37.500, 140.500 37.500, 144.750 37.807 C 148.062 38.047, 149 37.771, 149 36.557 C 149 35.487, 148.044 35, 145.941 35 C 144.156 35, 143.139 34.583, 143.500 34 C 143.840 33.450, 145.243 33, 146.618 33 C 148.030 33, 148.849 32.565, 148.500 32 C 148.160 31.450, 147.009 31, 145.941 31 C 144.873 31, 144 30.550, 144 30 C 144 29.450, 145.125 29, 146.500 29 C 147.875 29, 149 28.550, 149 28 C 149 27.450, 146.951 27, 144.448 27 C 139.895 27, 139.895 27, 140.198 32.250 M 152.648 31.553 C 152.297 34.113, 152.259 36.610, 152.564 37.103 C 152.869 37.597, 154.891 38, 157.059 38 C 159.227 38, 161 37.550, 161 37 C 161 36.450, 159.875 36, 158.500 36 C 156.897 36, 156 35.438, 156 34.433 C 156 33.343, 156.584 33.051, 157.916 33.473 C 158.970 33.808, 160.113 33.626, 160.457 33.070 C 160.801 32.514, 159.917 31.766, 158.494 31.409 C 157.071 31.052, 156.193 30.476, 156.544 30.130 C 156.894 29.783, 158.031 29.500, 159.071 29.500 C 160.111 29.500, 161.082 29.050, 161.231 28.500 C 161.379 27.950, 159.652 27.365, 157.393 27.199 C 153.286 26.899, 153.286 26.899, 152.648 31.553 M 211 27.459 C 211 27.734, 212.800 28.878, 215 30 C 217.200 31.122, 219 31.816, 219 31.541 C 219 31.266, 217.200 30.122, 215 29 C 212.800 27.878, 211 27.184, 211 27.459 M 132.622 30.750 C 133.282 33.500, 133.282 33.500, 130.827 31.250 C 129.476 30.012, 127.592 29, 126.640 29 C 125.194 29, 125.014 29.617, 125.542 32.750 C 125.890 34.813, 126.399 37.312, 126.672 38.305 C 126.946 39.298, 127.694 39.934, 128.335 39.718 C 128.981 39.500, 129.346 38.028, 129.153 36.413 C 128.807 33.500, 128.807 33.500, 131.218 35.750 C 132.544 36.987, 134.396 38, 135.334 38 C 136.623 38, 136.912 37.392, 136.519 35.500 C 136.234 34.125, 135.766 31.875, 135.481 30.500 C 135.195 29.125, 134.287 28, 133.462 28 C 132.332 28, 132.125 28.679, 132.622 30.750 M 165.468 31.700 C 165.116 33.790, 164.753 36.128, 164.664 36.896 C 164.574 37.664, 165.063 38.489, 165.751 38.730 C 166.439 38.971, 167.400 38.117, 167.887 36.834 C 168.771 34.500, 168.771 34.500, 170.046 37.250 C 170.747 38.763, 171.973 40, 172.769 40 C 173.804 40, 174.042 39.305, 173.605 37.561 C 173.268 36.220, 173.444 34.843, 173.996 34.502 C 174.548 34.161, 175 33.017, 175 31.960 C 175 30.678, 174.084 29.834, 172.250 29.426 C 170.738 29.090, 168.737 28.608, 167.805 28.357 C 166.497 28.005, 165.963 28.769, 165.468 31.700 M 118.238 30.853 C 117.260 31.457, 117.336 32.629, 118.590 36.311 C 119.478 38.916, 120.813 41, 121.594 41 C 122.367 41, 123 40.715, 123 40.366 C 123 40.017, 122.474 37.880, 121.831 35.616 C 121.189 33.352, 120.397 31.181, 120.073 30.792 C 119.749 30.402, 118.923 30.430, 118.238 30.853 M 169 32 C 169 32.550, 169.702 33, 170.559 33 C 171.416 33, 171.840 32.550, 171.500 32 C 171.160 31.450, 170.459 31, 169.941 31 C 169.423 31, 169 31.450, 169 32 M 178.192 35.571 C 177.520 38.085, 177.228 40.560, 177.544 41.071 C 177.860 41.582, 178.470 42, 178.901 42 C 179.331 42, 180.205 40.260, 180.842 38.134 C 181.479 36.008, 182 33.533, 182 32.634 C 182 31.735, 181.418 31, 180.707 31 C 179.996 31, 178.865 33.057, 178.192 35.571 M 220.500 32.673 C 221.050 33.204, 225.270 36.308, 229.878 39.570 C 234.486 42.831, 243.027 50.450, 248.859 56.500 C 254.691 62.550, 258.051 65.700, 256.326 63.500 C 254.601 61.300, 249.209 55.644, 244.345 50.931 C 239.480 46.218, 232.575 40.325, 229 37.836 C 225.425 35.346, 221.825 32.949, 221 32.508 C 220.026 31.988, 219.851 32.045, 220.500 32.673 M 71.732 35.536 C 69.679 36.931, 68 38.287, 68 38.550 C 68 38.813, 69.800 37.837, 72 36.381 C 74.200 34.925, 76 33.569, 76 33.367 C 76 33.165, 75.879 33, 75.732 33 C 75.585 33, 73.785 34.141, 71.732 35.536 M 106.571 34.571 C 105.707 35.436, 105 37.204, 105 38.500 C 105 39.796, 105.707 41.564, 106.571 42.429 C 107.436 43.293, 109.040 44, 110.137 44 C 111.234 44, 113.002 43.534, 114.066 42.965 C 115.175 42.371, 116 40.878, 116 39.465 C 116 37.692, 115.455 37, 114.059 37 C 112.991 37, 111.809 37.500, 111.431 38.112 C 111.053 38.723, 111.299 39.567, 111.979 39.987 C 112.895 40.553, 112.916 40.934, 112.063 41.461 C 111.430 41.852, 110.235 41.610, 109.408 40.924 C 108.580 40.237, 108.038 38.736, 108.202 37.588 C 108.410 36.130, 109.228 35.500, 110.912 35.500 C 112.238 35.500, 113.513 34.938, 113.745 34.250 C 114.020 33.433, 113.122 33, 111.155 33 C 109.498 33, 107.436 33.707, 106.571 34.571 M 186.014 35.463 C 185.465 36.907, 184.751 39.144, 184.427 40.435 C 184.103 41.726, 184.325 43.083, 184.921 43.451 C 185.539 43.833, 186.473 42.915, 187.097 41.310 C 188.190 38.500, 188.190 38.500, 189.345 41.925 C 189.980 43.809, 191.043 45.527, 191.708 45.744 C 192.372 45.961, 193.609 44.477, 194.458 42.447 C 195.306 40.417, 196 38.136, 196 37.378 C 196 36.620, 195.377 36, 194.617 36 C 193.856 36, 192.936 37.013, 192.573 38.250 C 191.961 40.333, 191.822 40.246, 190.706 37.075 C 190.043 35.191, 188.940 33.467, 188.256 33.244 C 187.572 33.020, 186.563 34.019, 186.014 35.463 M 97.505 37.993 C 97.156 38.557, 97.155 39.914, 97.503 41.009 C 97.850 42.104, 97.864 43, 97.532 43 C 97.201 43, 95.929 42.344, 94.705 41.542 C 93.420 40.701, 91.931 40.425, 91.179 40.889 C 90.150 41.525, 90.352 42.670, 92.138 46.347 C 93.381 48.906, 94.732 51, 95.140 51 C 95.548 51, 96.154 50.559, 96.487 50.021 C 96.820 49.482, 96.606 48.132, 96.011 47.021 C 95.416 45.909, 95.186 45, 95.500 45 C 95.814 45, 97.203 45.742, 98.587 46.649 C 100.438 47.862, 101.398 48.002, 102.218 47.182 C 103.039 46.361, 102.847 44.988, 101.493 41.985 C 100.481 39.740, 99.312 37.693, 98.895 37.435 C 98.479 37.178, 97.853 37.429, 97.505 37.993 M 58.397 45.901 C 53.940 49.696, 47.750 55.800, 44.640 59.466 C 41.530 63.131, 37.268 68.688, 35.167 71.815 C 33.067 74.942, 30.979 78.175, 30.527 79 C 29.984 79.994, 30.041 80.162, 30.698 79.500 C 31.244 78.950, 34.016 75.085, 36.858 70.912 C 39.701 66.738, 45.283 59.949, 49.263 55.825 C 53.243 51.701, 58.975 46.239, 62 43.688 C 65.025 41.136, 67.275 39.038, 67 39.024 C 66.725 39.011, 62.854 42.105, 58.397 45.901 M 199.245 41.250 C 198.695 41.938, 197.942 43.489, 197.571 44.699 C 197.102 46.230, 197.520 47.520, 198.949 48.949 C 200.077 50.077, 202.109 51, 203.465 51 C 204.889 51, 206.372 50.173, 206.978 49.042 C 207.819 47.469, 207.642 46.879, 206.078 46.042 C 205.008 45.469, 203.847 45, 203.498 45 C 203.150 45, 203.151 45.900, 203.500 47 C 203.849 48.100, 203.710 49, 203.190 49 C 202.670 49, 201.792 48.438, 201.238 47.750 C 200.631 46.997, 200.570 45.605, 201.083 44.250 C 201.552 43.013, 202.477 42, 203.139 42 C 203.801 42, 205.168 42.747, 206.177 43.661 C 207.187 44.574, 208.307 45.027, 208.667 44.667 C 209.027 44.307, 208.504 43.110, 207.506 42.006 C 206.507 40.903, 204.465 40, 202.967 40 C 201.470 40, 199.795 40.563, 199.245 41.250 M 82.250 46.115 C 80.463 47.260, 79 48.387, 79 48.620 C 79 48.852, 80.185 50.833, 81.633 53.021 C 83.081 55.210, 84.455 57, 84.686 57 C 84.917 57, 86.691 55.923, 88.629 54.606 C 90.587 53.276, 91.692 51.928, 91.117 51.572 C 90.547 51.220, 89.184 51.493, 88.086 52.178 C 86.989 52.864, 85.782 53.115, 85.404 52.737 C 85.026 52.359, 85.793 51.154, 87.108 50.058 C 88.466 48.928, 88.931 48.052, 88.184 48.033 C 87.461 48.015, 85.998 48.466, 84.934 49.035 C 83.668 49.713, 83 49.725, 83 49.070 C 83 48.520, 83.900 47.589, 85 47 C 86.100 46.411, 87 45.495, 87 44.965 C 87 44.434, 86.662 44.008, 86.250 44.017 C 85.838 44.026, 84.037 44.970, 82.250 46.115 M 127 49.959 C 122.325 50.959, 116.146 52.718, 113.268 53.867 C 110.391 55.016, 104.991 57.492, 101.268 59.369 C 97.546 61.247, 91.652 64.882, 88.172 67.447 C 84.691 70.012, 78.914 75.113, 75.334 78.782 C 71.754 82.452, 66.407 89.087, 63.453 93.528 C 60.498 97.969, 56.663 104.932, 54.932 109.001 C 53.200 113.070, 50.639 120.697, 49.241 125.949 C 47.066 134.120, 46.702 137.595, 46.720 150 C 46.739 162.260, 47.131 165.975, 49.263 174.051 C 50.649 179.303, 53.200 186.930, 54.932 190.999 C 56.663 195.068, 60.497 202.020, 63.451 206.449 C 66.405 210.877, 71.870 217.584, 75.595 221.354 C 79.320 225.124, 84.782 229.992, 87.733 232.172 C 90.684 234.353, 96.399 237.916, 100.433 240.092 C 104.467 242.268, 111.665 245.366, 116.429 246.976 C 121.193 248.586, 128.736 250.437, 133.191 251.088 C 138.077 251.803, 146.490 252.056, 154.395 251.726 C 164.383 251.310, 169.589 250.563, 176.284 248.585 C 181.115 247.157, 187.945 244.685, 191.460 243.091 C 194.976 241.497, 201.148 238.071, 205.176 235.479 C 209.204 232.887, 216.574 226.656, 221.553 221.633 C 227.034 216.103, 232.663 209.151, 235.823 204.009 C 238.693 199.339, 242.435 191.914, 244.140 187.509 C 245.844 183.104, 248.079 175.450, 249.106 170.500 C 250.300 164.750, 250.974 157.348, 250.974 150 C 250.974 142.652, 250.300 135.250, 249.106 129.500 C 248.079 124.550, 245.844 116.896, 244.140 112.491 C 242.435 108.086, 238.718 100.709, 235.880 96.096 C 233.041 91.484, 227.552 84.376, 223.681 80.301 C 219.810 76.226, 213.686 70.667, 210.072 67.947 C 206.457 65.227, 200.125 61.258, 196 59.126 C 191.875 56.995, 184.900 54.092, 180.500 52.676 C 176.100 51.260, 169.830 49.629, 166.566 49.051 C 163.303 48.473, 154.978 48.032, 148.066 48.070 C 139.953 48.116, 132.488 48.785, 127 49.959 M 215.174 51.314 C 213.978 52.587, 213 54.355, 213 55.242 C 213 56.129, 214.154 57.762, 215.564 58.872 C 216.974 59.981, 218.793 60.633, 219.606 60.321 C 220.419 60.009, 220.916 59.248, 220.710 58.631 C 220.505 58.014, 219.473 57.507, 218.418 57.504 C 217.205 57.502, 216.500 56.805, 216.500 55.609 C 216.500 54.569, 217.255 53.242, 218.178 52.659 C 219.504 51.823, 220.284 52.115, 221.895 54.050 C 223.918 56.481, 223.934 56.483, 223.967 54.307 C 223.985 53.100, 223 51.413, 221.777 50.557 C 220.555 49.701, 219.059 49, 218.452 49 C 217.845 49, 216.370 50.042, 215.174 51.314 M 131.125 51.450 C 127.069 52.221, 121.444 53.602, 118.625 54.520 C 115.806 55.437, 110.263 57.680, 106.308 59.502 C 102.352 61.325, 96.502 64.545, 93.309 66.658 C 90.116 68.771, 84.223 73.611, 80.214 77.413 C 76.205 81.215, 70.865 87.065, 68.348 90.413 C 65.830 93.761, 61.799 100.426, 59.389 105.223 C 56.979 110.021, 53.786 117.896, 52.294 122.723 C 49.753 130.946, 49.584 132.668, 49.606 150 C 49.629 167.274, 49.812 169.092, 52.366 177.438 C 53.870 182.354, 57.137 190.320, 59.626 195.140 C 62.116 199.960, 66.305 206.746, 68.935 210.221 C 71.566 213.696, 77.095 219.681, 81.223 223.520 C 85.350 227.359, 92.392 232.701, 96.872 235.392 C 101.351 238.083, 109.012 241.785, 113.897 243.620 C 118.781 245.454, 126.990 247.639, 132.138 248.474 C 137.287 249.309, 144.929 249.994, 149.119 249.996 C 153.309 249.998, 160.666 249.315, 165.466 248.478 C 170.266 247.641, 176.963 246.042, 180.347 244.924 C 183.731 243.807, 189.979 241.149, 194.231 239.017 C 198.482 236.885, 205.340 232.599, 209.469 229.491 C 213.598 226.383, 219.492 221.064, 222.568 217.670 C 225.643 214.277, 229.942 208.800, 232.121 205.500 C 234.301 202.200, 237.689 196.148, 239.650 192.050 C 241.612 187.953, 244.369 180.303, 245.778 175.050 C 248.005 166.745, 248.339 163.480, 248.339 150 C 248.339 136.493, 248.008 133.263, 245.760 124.880 C 244.342 119.590, 241.357 111.438, 239.127 106.766 C 236.897 102.094, 232.440 94.722, 229.223 90.385 C 226.006 86.048, 220.477 79.871, 216.937 76.659 C 213.397 73.446, 207.162 68.619, 203.082 65.932 C 199.002 63.245, 192.331 59.659, 188.257 57.963 C 184.184 56.268, 177.397 53.968, 173.175 52.854 C 167.897 51.461, 161.284 50.706, 152 50.438 C 143.037 50.179, 136.022 50.519, 131.125 51.450 M 70.504 54.994 C 70.166 55.541, 71.093 57.566, 72.563 59.494 C 74.034 61.422, 75.859 63, 76.619 63 C 77.378 63, 78 62.687, 78 62.304 C 78 61.921, 76.814 59.896, 75.364 57.804 C 73.914 55.712, 72.366 54, 71.923 54 C 71.480 54, 70.842 54.447, 70.504 54.994 M 225.039 60.189 C 223.918 61.392, 223 62.867, 223 63.466 C 223 64.065, 223.701 65.555, 224.557 66.777 C 225.554 68.201, 227.151 69, 229 69 C 230.849 69, 232.446 68.201, 233.443 66.777 C 234.299 65.555, 235 63.980, 235 63.277 C 235 62.575, 234.100 61.100, 233 60 C 231.900 58.900, 230.118 58, 229.039 58 C 227.960 58, 226.160 58.985, 225.039 60.189 M 61.988 62.512 C 59.628 65.025, 59.628 65.025, 61.614 67.685 C 62.707 69.148, 64.344 70.814, 65.252 71.387 C 66.161 71.960, 67.246 72.087, 67.664 71.669 C 68.082 71.251, 67.855 69.998, 67.159 68.883 C 65.978 66.991, 66.106 66.879, 69.098 67.179 C 70.908 67.360, 72.478 66.993, 72.706 66.335 C 72.928 65.694, 72.234 64.892, 71.163 64.552 C 70.092 64.212, 68.984 63.049, 68.702 61.967 C 68.416 60.873, 67.335 60, 66.268 60 C 65.212 60, 63.286 61.131, 61.988 62.512 M 148.318 62.638 C 147.367 64.089, 146.569 66.403, 146.545 67.779 C 146.520 69.156, 145.825 70.616, 145 71.024 C 144.175 71.432, 142.197 72.156, 140.604 72.633 C 139.011 73.110, 137.211 74.293, 136.604 75.262 C 135.698 76.707, 136.004 77.425, 138.307 79.262 C 141.113 81.502, 141.113 81.502, 138.070 83.299 C 136.397 84.288, 133.855 87.098, 132.421 89.544 C 130.083 93.535, 129.542 93.916, 127.157 93.260 C 125.696 92.857, 122.955 92.608, 121.067 92.706 C 119.178 92.803, 116.478 93.742, 115.067 94.792 C 113.163 96.207, 112.421 97.772, 112.193 100.850 C 111.885 105, 111.885 105, 103.943 105 C 96.667 105, 96 105.168, 96 107 C 96 108.348, 95.333 109, 93.955 109 C 91.919 109, 91.911 109.218, 92.205 156.750 C 92.473 200.204, 92.662 204.860, 94.301 208.500 C 95.291 210.700, 97.541 214.002, 99.301 215.838 C 101.060 217.673, 104.075 219.982, 106 220.969 C 107.925 221.955, 113.100 223.745, 117.500 224.946 C 121.900 226.147, 127.472 228.001, 129.882 229.067 C 132.291 230.132, 136.946 232.835, 140.225 235.073 C 144.331 237.876, 146.702 238.905, 147.843 238.378 C 148.754 237.958, 149.950 237.572, 150.500 237.521 C 151.050 237.469, 153.525 235.940, 156 234.122 C 158.475 232.304, 162.155 229.966, 164.177 228.926 C 166.199 227.885, 171.374 226.074, 175.677 224.900 C 179.980 223.726, 186.200 221.543, 189.500 220.049 C 192.921 218.500, 197.051 215.608, 199.109 213.320 C 201.093 211.113, 203.568 207.101, 204.609 204.404 C 206.367 199.844, 206.500 196.205, 206.500 152.500 C 206.500 105.500, 206.500 105.500, 197.750 105.211 C 189 104.922, 189 104.922, 189 101.416 C 189 99.026, 188.218 97.127, 186.545 95.455 C 184.846 93.755, 182.980 93, 180.480 93 C 178.494 93, 176.048 93.439, 175.045 93.976 C 173.543 94.780, 173.007 94.432, 172 92.001 C 171.328 90.378, 168.813 87.239, 166.411 85.025 C 164.010 82.811, 161.472 80.992, 160.772 80.983 C 160.073 80.974, 160.963 80.030, 162.750 78.885 C 164.537 77.740, 166 76.225, 166 75.517 C 166 74.809, 164.947 73.540, 163.660 72.697 C 162.373 71.854, 160.022 71.014, 158.435 70.832 C 155.947 70.546, 155.529 70.048, 155.390 67.206 C 155.302 65.394, 154.433 63.031, 153.460 61.956 C 152.486 60.880, 151.320 60, 150.868 60 C 150.416 60, 149.268 61.187, 148.318 62.638 M 226.994 62.507 C 225.890 63.838, 225.922 64.351, 227.193 65.622 C 228.555 66.983, 228.891 66.966, 230.402 65.455 C 231.330 64.527, 231.919 63.258, 231.712 62.634 C 231.504 62.010, 230.655 61.368, 229.825 61.207 C 228.995 61.046, 227.721 61.631, 226.994 62.507 M 149.200 63.200 C 148.540 63.860, 148 65.382, 148 66.583 C 148 68.364, 148.540 68.739, 150.931 68.619 C 152.543 68.537, 154.179 68.154, 154.567 67.767 C 154.954 67.379, 154.525 65.923, 153.612 64.531 C 152.700 63.139, 151.604 62, 151.177 62 C 150.750 62, 149.860 62.540, 149.200 63.200 M 63.543 63.931 C 63.226 64.443, 63.362 65.106, 63.844 65.404 C 64.326 65.702, 65.009 65.658, 65.361 65.306 C 65.712 64.954, 66 64.292, 66 63.833 C 66 63.375, 65.577 63, 65.059 63 C 64.541 63, 63.859 63.419, 63.543 63.931 M 234.985 70.516 C 231.577 74.032, 231.577 74.032, 234.258 76.713 C 235.733 78.187, 237.214 79.119, 237.551 78.783 C 237.887 78.446, 237.629 77.175, 236.977 75.956 C 235.939 74.017, 236.135 73.467, 238.557 71.536 C 240.169 70.251, 241.022 68.845, 240.602 68.166 C 240.206 67.524, 239.547 67, 239.137 67 C 238.728 67, 236.859 68.582, 234.985 70.516 M 263.770 75.366 C 266.372 79.417, 269.069 83.579, 269.764 84.616 C 270.460 85.652, 270.282 84.925, 269.370 83 C 268.457 81.075, 265.959 76.912, 263.818 73.750 C 261.677 70.588, 259.726 68, 259.483 68 C 259.240 68, 261.169 71.315, 263.770 75.366 M 52.654 72.459 C 52.346 73.261, 53.238 75.963, 54.635 78.463 C 56.033 80.963, 57.586 82.756, 58.088 82.446 C 58.590 82.136, 59 80.997, 59 79.916 C 59 78.740, 60.004 77.569, 61.500 77 C 62.875 76.477, 64 75.631, 64 75.119 C 64 74.607, 61.895 73.471, 59.322 72.594 C 56.749 71.717, 54.322 71, 53.929 71 C 53.536 71, 52.962 71.656, 52.654 72.459 M 147.667 73.065 C 146.872 74.200, 146.445 75.985, 146.719 77.032 C 146.992 78.078, 148.067 79.204, 149.108 79.534 C 150.149 79.865, 151.877 79.856, 152.949 79.516 C 154.021 79.176, 155.186 77.988, 155.539 76.877 C 155.940 75.612, 155.528 74.136, 154.435 72.928 C 153.475 71.868, 151.885 71, 150.902 71 C 149.918 71, 148.463 71.929, 147.667 73.065 M 158 75.500 C 158 77.820, 158.468 79, 159.389 79 C 160.153 79, 161.798 78.174, 163.044 77.165 C 165.310 75.331, 165.310 75.331, 162.932 73.665 C 161.625 72.749, 159.980 72, 159.277 72 C 158.484 72, 158 73.326, 158 75.500 M 138.571 74.922 C 136.906 76.762, 136.941 76.915, 139.408 78.532 C 140.825 79.460, 142.591 79.987, 143.333 79.703 C 144.211 79.366, 144.523 78.108, 144.227 76.093 C 143.920 74.001, 143.212 73, 142.041 73 C 141.089 73, 139.527 73.865, 138.571 74.922 M 56 74.882 C 56 75.432, 56.450 76.160, 57 76.500 C 57.550 76.840, 58 76.668, 58 76.118 C 58 75.568, 57.550 74.840, 57 74.500 C 56.450 74.160, 56 74.332, 56 74.882 M 242.749 79.265 C 238.998 82.500, 238.998 82.500, 241.136 85.812 C 242.590 88.064, 243.602 88.798, 244.295 88.105 C 244.989 87.411, 244.871 86.550, 243.929 85.415 C 242.711 83.947, 242.917 83.427, 245.630 81.122 C 247.327 79.680, 248.518 77.938, 248.275 77.250 C 248.032 76.563, 247.533 76.007, 247.167 76.015 C 246.800 76.023, 244.812 77.486, 242.749 79.265 M 46 80.671 C 46 81.040, 46.788 82.231, 47.750 83.317 C 49.451 85.236, 49.421 85.276, 46.671 84.769 C 44.777 84.420, 43.663 84.714, 43.300 85.661 C 43.002 86.438, 43.587 87.991, 44.602 89.112 C 46.418 91.119, 46.406 91.140, 43.832 90.494 C 42.324 90.116, 40.935 90.296, 40.549 90.921 C 40.177 91.523, 40.904 92.390, 42.190 92.874 C 43.460 93.353, 45.962 94.063, 47.750 94.452 C 50.448 95.039, 51 94.862, 51 93.408 C 51 92.445, 50.212 90.766, 49.250 89.676 C 47.541 87.741, 47.575 87.709, 50.711 88.315 C 52.564 88.672, 54.198 88.489, 54.574 87.881 C 54.932 87.301, 53.736 85.291, 51.916 83.414 C 50.097 81.536, 48.021 80, 47.304 80 C 46.587 80, 46 80.302, 46 80.671 M 25.448 88.102 C 23.481 92.009, 22.035 95.368, 22.234 95.567 C 22.433 95.767, 24.258 92.570, 26.290 88.465 C 28.321 84.359, 29.768 81, 29.504 81 C 29.241 81, 27.416 84.196, 25.448 88.102 M 142.907 86.325 C 140.160 87.774, 137.659 90.128, 136.266 92.575 C 134.935 94.915, 134.026 98.216, 134.016 100.750 C 134 105, 134 105, 139 105 C 141.824 105, 144 105.457, 144 106.050 C 144 106.627, 143.292 108.469, 142.426 110.143 C 141.561 111.816, 141.099 113.433, 141.401 113.734 C 141.703 114.036, 142.885 112.101, 144.029 109.433 C 145.172 106.766, 146.832 101.978, 147.718 98.792 C 148.924 94.452, 149.783 93, 151.145 93 C 152.309 93, 153.186 93.988, 153.585 95.750 C 153.927 97.263, 154.525 99.850, 154.914 101.500 C 155.602 104.423, 155.791 104.508, 162.310 104.796 C 169 105.091, 169 105.091, 169 101.514 C 169 99.546, 168.380 96.488, 167.623 94.718 C 166.866 92.948, 164.953 90.291, 163.373 88.814 C 161.793 87.336, 159.233 85.649, 157.685 85.064 C 156.137 84.479, 153.170 84, 151.092 84 C 149.014 84, 145.331 85.046, 142.907 86.325 M 249.777 88.401 C 247.729 89.618, 245.765 90.902, 245.412 91.254 C 245.060 91.607, 245.760 93.493, 246.967 95.447 C 248.175 97.401, 249.625 99, 250.189 99 C 250.773 99, 250.904 98.247, 250.494 97.250 C 250.097 96.287, 249.565 94.600, 249.311 93.500 C 248.880 91.640, 248.987 91.657, 250.834 93.750 C 251.927 94.987, 253.122 96, 253.490 96 C 253.858 96, 253.872 94.537, 253.522 92.750 C 252.885 89.500, 252.885 89.500, 254.874 91.985 C 255.968 93.352, 257.137 94.196, 257.472 93.861 C 257.807 93.526, 257.119 91.620, 255.942 89.626 C 254.765 87.632, 253.734 86.042, 253.651 86.094 C 253.568 86.146, 251.824 87.184, 249.777 88.401 M 273.519 92.699 C 274.369 94.733, 275.275 96.608, 275.532 96.865 C 275.789 97.123, 276 97.088, 276 96.789 C 276 96.489, 275.319 94.614, 274.487 92.622 C 273.654 90.630, 272.748 89, 272.473 89 C 272.198 89, 272.669 90.664, 273.519 92.699 M 116.875 96.506 C 115.432 97.291, 114.025 98.798, 113.748 99.855 C 113.471 100.913, 113.633 102.391, 114.107 103.139 C 114.799 104.231, 114.972 104.185, 114.985 102.905 C 114.993 102.028, 115.882 100.512, 116.960 99.536 C 118.365 98.265, 119.709 97.959, 121.710 98.456 C 123.244 98.837, 125.479 100.062, 126.676 101.179 C 127.873 102.296, 129.335 102.911, 129.926 102.546 C 130.517 102.181, 131 101.034, 131 99.998 C 131 98.961, 130 97.413, 128.777 96.557 C 127.555 95.701, 124.968 95.018, 123.027 95.040 C 121.087 95.062, 118.319 95.722, 116.875 96.506 M 177 95.689 C 176.175 96.003, 174.713 96.947, 173.750 97.785 C 172.787 98.624, 172.007 99.578, 172.015 99.905 C 172.024 100.232, 172.429 101.130, 172.917 101.900 C 173.648 103.055, 174.281 102.924, 176.537 101.150 C 178.040 99.967, 180.309 99, 181.578 99 C 182.848 99, 184.587 100, 185.443 101.223 C 186.967 103.398, 187 103.401, 187 101.377 C 187 100.240, 186.213 98.600, 185.250 97.733 C 184.287 96.866, 182.375 95.922, 181 95.636 C 179.625 95.350, 177.825 95.374, 177 95.689 M 37.035 97.934 C 36.466 98.998, 36 100.798, 36 101.934 C 36 103.478, 36.640 104, 38.531 104 C 39.924 104, 41.322 103.325, 41.638 102.500 C 41.955 101.675, 42.841 101, 43.607 101 C 44.373 101, 45 101.265, 45 101.590 C 45 101.914, 43.987 103.024, 42.750 104.056 C 40.500 105.933, 40.500 105.933, 42.771 105.967 C 44.261 105.989, 45.447 105.113, 46.217 103.422 C 47.030 101.640, 47.078 100.347, 46.374 99.232 C 45.815 98.345, 44.855 97.452, 44.241 97.247 C 43.627 97.042, 42.159 97.841, 40.979 99.021 C 39.799 100.201, 38.592 100.926, 38.298 100.631 C 38.003 100.336, 38.490 99.367, 39.381 98.476 C 40.271 97.586, 41 96.664, 41 96.429 C 41 96.193, 40.341 96, 39.535 96 C 38.730 96, 37.605 96.870, 37.035 97.934 M 19.098 102.469 C 17.944 105.552, 17.023 108.621, 17.052 109.288 C 17.081 109.954, 18.184 107.591, 19.504 104.035 C 20.824 100.480, 21.744 97.411, 21.550 97.216 C 21.355 97.021, 20.251 99.385, 19.098 102.469 M 117.750 100.080 C 116.787 100.641, 116 101.977, 116 103.050 C 116 104.767, 116.718 105, 122 105 C 125.391 105, 128 104.559, 128 103.985 C 128 103.427, 126.537 102.079, 124.750 100.989 C 122.963 99.899, 121.050 99.019, 120.500 99.034 C 119.950 99.049, 118.713 99.519, 117.750 100.080 M 253.750 100.080 C 252.644 100.725, 252 102.311, 252 104.395 C 252 106.372, 252.766 108.384, 253.917 109.425 C 255.451 110.813, 256.252 110.935, 257.930 110.038 C 259.632 109.127, 259.829 108.548, 258.978 106.958 C 258.401 105.881, 257.469 105, 256.906 105 C 256.343 105, 256.160 105.450, 256.500 106 C 256.840 106.550, 256.668 107, 256.118 107 C 255.568 107, 254.828 106.530, 254.473 105.956 C 254.118 105.382, 254.372 104.257, 255.036 103.456 C 255.701 102.655, 257.034 102, 257.997 102 C 259.153 102, 259.959 103.044, 260.363 105.066 C 260.704 106.770, 261.426 107.855, 261.988 107.507 C 262.545 107.163, 263 106.109, 263 105.163 C 263 104.218, 262.299 102.445, 261.443 101.223 C 260.587 100, 258.900 99.014, 257.693 99.030 C 256.487 99.047, 254.713 99.519, 253.750 100.080 M 177.043 102.455 C 174.651 105, 174.651 105, 179.895 105 C 184.761 105, 185.116 104.838, 184.820 102.750 C 184.599 101.195, 183.718 100.409, 181.967 100.205 C 180.283 100.008, 178.632 100.762, 177.043 102.455 M 150 102.514 C 150 103.346, 150.410 104.809, 150.911 105.764 C 151.413 106.719, 152.585 109.665, 153.517 112.311 C 154.449 114.957, 155.433 116.900, 155.704 116.630 C 155.974 116.359, 155.251 113.615, 154.098 110.531 C 152.944 107.448, 152 104.042, 152 102.962 C 152 101.883, 151.550 101, 151 101 C 150.450 101, 150 101.681, 150 102.514 M 278.157 103.500 C 278.154 104.050, 278.759 106.075, 279.500 108 C 280.241 109.925, 280.862 110.825, 280.879 110 C 280.896 109.175, 280.292 107.150, 279.536 105.500 C 278.781 103.850, 278.160 102.950, 278.157 103.500 M 118.336 111.638 C 120.351 114.444, 122 117.473, 122 118.369 C 122 119.266, 121.298 120, 120.441 120 C 119.584 120, 119.160 120.450, 119.500 121 C 119.840 121.550, 121.441 122, 123.059 122 C 124.900 122, 126 121.481, 126 120.613 C 126 119.850, 124.537 117.075, 122.750 114.447 C 120.963 111.818, 118.414 108.963, 117.086 108.102 C 115.037 106.775, 115.226 107.310, 118.336 111.638 M 129.011 109.979 C 128.428 111.068, 128.237 113.097, 128.587 114.489 C 128.936 115.880, 129.509 117.197, 129.861 117.414 C 130.212 117.631, 130.500 115.602, 130.500 112.905 C 130.500 110.207, 130.403 108, 130.285 108 C 130.167 108, 129.594 108.891, 129.011 109.979 M 160 108.941 C 160 109.459, 160.450 110.160, 161 110.500 C 161.550 110.840, 162 110.416, 162 109.559 C 162 108.702, 161.550 108, 161 108 C 160.450 108, 160 108.423, 160 108.941 M 34.335 109.695 C 33.144 109.927, 31.928 110.746, 31.632 111.515 C 31.312 112.350, 32.778 114.311, 35.268 116.380 C 37.563 118.286, 39.777 119.638, 40.188 119.384 C 40.598 119.130, 40.669 117.597, 40.345 115.977 C 39.911 113.805, 40.183 112.867, 41.378 112.408 C 42.270 112.066, 43 111.159, 43 110.393 C 43 109.460, 41.926 109.045, 39.750 109.136 C 37.962 109.211, 35.526 109.462, 34.335 109.695 M 180.094 113.671 C 178.392 116.241, 177 119.139, 177 120.112 C 177 121.086, 177.409 122.135, 177.910 122.444 C 178.410 122.753, 179.514 122.740, 180.363 122.414 C 181.573 121.950, 181.666 121.438, 180.794 120.042 C 179.911 118.628, 180.215 117.309, 182.271 113.631 C 183.694 111.084, 184.483 109, 184.024 109 C 183.564 109, 181.796 111.102, 180.094 113.671 M 260.500 112.834 C 258.300 113.670, 256.315 114.497, 256.090 114.671 C 255.864 114.845, 256.220 116.790, 256.880 118.994 C 257.540 121.197, 258.548 123, 259.120 123 C 259.754 123, 259.902 121.832, 259.500 120 C 259.060 117.997, 259.231 117, 260.014 117 C 260.659 117, 261.423 117.900, 261.710 119 C 261.998 120.100, 262.667 121, 263.196 121 C 263.744 121, 263.889 119.600, 263.532 117.750 C 262.948 114.721, 263.008 114.629, 264.417 116.392 C 265.248 117.432, 266.107 118.782, 266.327 119.392 C 266.547 120.001, 267.058 120.193, 267.463 119.817 C 267.868 119.441, 267.672 117.535, 267.027 115.581 C 266.382 113.627, 265.549 111.867, 265.177 111.671 C 264.805 111.475, 262.700 111.998, 260.500 112.834 M 35.500 113 C 35.840 113.550, 36.541 114, 37.059 114 C 37.577 114, 38 113.550, 38 113 C 38 112.450, 37.298 112, 36.441 112 C 35.584 112, 35.160 112.450, 35.500 113 M 281.141 113 C 281.141 113.825, 281.527 115.400, 282 116.500 C 282.542 117.761, 282.859 117.945, 282.859 117 C 282.859 116.175, 282.473 114.600, 282 113.500 C 281.458 112.239, 281.141 112.055, 281.141 113 M 13.500 122 C 13.116 124.274, 13.011 126.345, 13.268 126.601 C 13.524 126.857, 14.034 125.192, 14.400 122.900 C 14.766 120.608, 14.871 118.538, 14.632 118.299 C 14.394 118.060, 13.884 119.726, 13.500 122 M 283.158 121 C 283.158 122.375, 283.385 122.938, 283.662 122.250 C 283.940 121.563, 283.940 120.438, 283.662 119.750 C 283.385 119.063, 283.158 119.625, 283.158 121 M 28.504 121.250 C 28.266 121.938, 27.942 123.811, 27.785 125.414 C 27.520 128.120, 27.838 128.415, 32.254 129.561 C 34.869 130.240, 37.173 130.504, 37.373 130.147 C 37.573 129.791, 38.042 127.813, 38.414 125.750 C 38.836 123.413, 38.704 122, 38.064 122 C 37.500 122, 36.756 123.125, 36.411 124.500 C 36.066 125.875, 35.350 127, 34.820 127 C 34.290 127, 34.002 125.896, 34.178 124.546 C 34.355 123.196, 34.050 121.959, 33.500 121.796 C 32.950 121.633, 32.356 122.513, 32.180 123.750 C 32.005 124.987, 31.386 126, 30.805 126 C 30.166 126, 29.987 124.817, 30.350 123 C 30.699 121.257, 30.528 120, 29.944 120 C 29.390 120, 28.742 120.563, 28.504 121.250 M 107.537 123.940 C 107.234 124.431, 107.429 125.998, 107.971 127.423 C 108.513 128.849, 109.528 129.899, 110.228 129.757 C 111.231 129.554, 111.556 135.994, 111.764 160.179 C 112.029 190.857, 112.029 190.857, 109.764 191.179 C 107.973 191.433, 107.510 192.127, 107.548 194.500 C 107.597 197.500, 107.597 197.500, 151.498 197.500 C 195.400 197.500, 195.400 197.500, 195.404 194.500 C 195.407 192.163, 194.917 191.429, 193.190 191.179 C 190.971 190.857, 190.971 190.857, 191.236 160.179 C 191.482 131.598, 191.620 129.520, 193.250 129.794 C 194.638 130.027, 195 129.367, 195 126.607 C 195 123.127, 195 123.127, 151.544 123.087 C 127.091 123.065, 107.848 123.437, 107.537 123.940 M 284.195 126.500 C 284.215 128.150, 284.439 128.704, 284.693 127.731 C 284.947 126.758, 284.930 125.408, 284.656 124.731 C 284.382 124.054, 284.175 124.850, 284.195 126.500 M 12.232 131 C 12.232 132.925, 12.438 133.713, 12.689 132.750 C 12.941 131.787, 12.941 130.213, 12.689 129.250 C 12.438 128.287, 12.232 129.075, 12.232 131 M 117.357 130.512 C 117.144 131.068, 117.089 144.793, 117.235 161.012 C 117.500 190.500, 117.500 190.500, 151.250 190.763 C 185 191.027, 185 191.027, 185 160.513 C 185 130, 185 130, 163.750 129.938 C 152.063 129.903, 136.930 129.791, 130.123 129.688 C 122.524 129.572, 117.595 129.891, 117.357 130.512 M 285.500 150 C 285.500 161.275, 285.804 168.475, 286.176 166 C 286.548 163.525, 286.852 156.325, 286.852 150 C 286.852 143.675, 286.548 136.475, 286.176 134 C 285.804 131.525, 285.500 138.725, 285.500 150 M 11.232 139 C 11.232 140.925, 11.438 141.713, 11.689 140.750 C 11.941 139.787, 11.941 138.213, 11.689 137.250 C 11.438 136.287, 11.232 137.075, 11.232 139 M 167.709 150.624 C 167.319 151.014, 167 152.833, 167 154.667 C 167 157.718, 167.259 158, 170.060 158 C 172.985 158, 173.107 157.834, 172.810 154.250 C 172.571 151.363, 172.030 150.433, 170.459 150.208 C 169.336 150.047, 168.099 150.235, 167.709 150.624 M 11.232 161 C 11.232 162.925, 11.438 163.713, 11.689 162.750 C 11.941 161.787, 11.941 160.213, 11.689 159.250 C 11.438 158.287, 11.232 159.075, 11.232 161 M 147 164.500 C 147 169, 147 169, 152.500 169 C 158 169, 158 169, 158 164.500 C 158 160, 158 160, 152.500 160 C 147 160, 147 160, 147 164.500 M 129 169.500 C 129 175, 129 175, 134 175 C 139 175, 139 175, 139 181.563 C 139 188.127, 139 188.127, 142.250 187.813 C 145.500 187.500, 145.500 187.500, 145.782 175.750 C 146.063 164, 146.063 164, 137.532 164 C 129 164, 129 164, 129 169.500 M 12.232 169 C 12.232 170.925, 12.438 171.713, 12.689 170.750 C 12.941 169.787, 12.941 168.213, 12.689 167.250 C 12.438 166.287, 12.232 167.075, 12.232 169 M 284.195 173.500 C 284.215 175.150, 284.439 175.704, 284.693 174.731 C 284.947 173.758, 284.930 172.408, 284.656 171.731 C 284.382 171.054, 284.175 171.850, 284.195 173.500 M 13.218 175 C 13.208 176.375, 13.560 178.625, 14 180 C 14.627 181.959, 14.797 182.067, 14.782 180.500 C 14.772 179.400, 14.420 177.150, 14 175.500 C 13.314 172.805, 13.235 172.754, 13.218 175 M 129 181.500 C 129 187, 129 187, 133.500 187 C 138 187, 138 187, 138 181.500 C 138 176, 138 176, 133.500 176 C 129 176, 129 176, 129 181.500 M 281.571 184.571 C 281.204 186.037, 281.096 187.429, 281.331 187.665 C 281.567 187.900, 282.061 186.894, 282.429 185.429 C 282.796 183.963, 282.904 182.571, 282.669 182.335 C 282.433 182.100, 281.939 183.106, 281.571 184.571 M 279.200 192.700 C 278.576 194.734, 278.230 196.564, 278.433 196.766 C 278.635 196.968, 279.340 195.499, 280 193.500 C 280.660 191.501, 281.005 189.672, 280.767 189.434 C 280.530 189.196, 279.824 190.666, 279.200 192.700 M 17.052 190.712 C 17.023 191.379, 17.944 194.448, 19.098 197.531 C 20.251 200.615, 21.355 202.979, 21.550 202.784 C 21.744 202.589, 20.824 199.520, 19.504 195.965 C 18.184 192.409, 17.081 190.046, 17.052 190.712 M 276.624 199.539 C 276.281 200.432, 276.014 201.464, 276.030 201.832 C 276.047 202.199, 276.538 201.679, 277.122 200.675 C 277.706 199.671, 277.973 198.639, 277.715 198.382 C 277.458 198.124, 276.966 198.645, 276.624 199.539 M 129.200 204.200 C 128.540 204.860, 128 206.471, 128 207.780 C 128 209.629, 128.894 210.512, 132 211.732 C 134.200 212.596, 136 213.685, 136 214.152 C 136 214.618, 135.352 215, 134.559 215 C 133.766 215, 132.840 214.550, 132.500 214 C 132.160 213.450, 130.784 213, 129.441 213 C 128.098 213, 127 213.450, 127 214 C 127 214.550, 127.900 215.900, 129 217 C 130.100 218.100, 132.250 219, 133.777 219 C 135.305 219, 137.555 218.299, 138.777 217.443 C 140 216.587, 141 214.842, 141 213.566 C 141 212.289, 140.435 210.776, 139.744 210.203 C 139.054 209.630, 137.254 208.851, 135.744 208.472 C 134.235 208.093, 133 207.382, 133 206.892 C 133 206.401, 133.423 206, 133.941 206 C 134.459 206, 135.160 206.450, 135.500 207 C 135.840 207.550, 136.991 208, 138.059 208 C 139.127 208, 140 207.415, 140 206.700 C 140 205.985, 139.460 204.860, 138.800 204.200 C 138.140 203.540, 135.980 203, 134 203 C 132.020 203, 129.860 203.540, 129.200 204.200 M 143.208 210.750 C 143.471 217.736, 143.697 218.500, 145.500 218.500 C 146.938 218.500, 147.589 217.728, 147.816 215.750 C 147.990 214.238, 148.440 213.003, 148.816 213.006 C 149.192 213.010, 150.267 214.360, 151.203 216.006 C 152.148 217.665, 153.745 219, 154.787 219 C 155.821 219, 156.949 218.718, 157.293 218.373 C 157.638 218.028, 157.225 216.402, 156.375 214.758 C 155.264 212.610, 155.135 211.465, 155.915 210.685 C 156.512 210.088, 157 208.581, 157 207.335 C 157 206.090, 156.130 204.605, 155.066 204.035 C 154.002 203.466, 150.833 203, 148.024 203 C 142.916 203, 142.916 203, 143.208 210.750 M 159.208 210.750 C 159.438 216.842, 159.821 218.500, 161 218.500 C 161.985 218.500, 162.704 217.125, 163.093 214.500 C 163.686 210.500, 163.686 210.500, 164.463 213.728 C 164.891 215.503, 165.842 217.454, 166.577 218.064 C 167.311 218.673, 168.365 218.893, 168.917 218.551 C 169.470 218.209, 170.265 216.258, 170.684 214.215 C 171.445 210.500, 171.445 210.500, 171.973 214.500 C 172.323 217.154, 173.005 218.500, 174 218.500 C 175.179 218.500, 175.562 216.842, 175.792 210.750 C 176.084 203, 176.084 203, 173.017 203 C 170.405 203, 169.860 203.448, 169.346 206.021 C 169.014 207.682, 168.399 209.253, 167.980 209.512 C 167.562 209.771, 166.925 208.411, 166.564 206.491 C 165.964 203.293, 165.616 203, 162.413 203 C 158.916 203, 158.916 203, 159.208 210.750 M 273.679 206.546 C 272.756 208.483, 272.020 210.390, 272.044 210.784 C 272.069 211.178, 273.001 209.770, 274.116 207.656 C 275.232 205.541, 275.968 203.634, 275.752 203.418 C 275.535 203.202, 274.603 204.610, 273.679 206.546 M 22.019 204.279 C 22.009 204.707, 23.405 207.857, 25.122 211.279 C 26.838 214.700, 30.595 221.100, 33.468 225.500 C 36.342 229.900, 42.059 237.325, 46.172 242 C 50.285 246.675, 57.366 253.425, 61.909 257 C 66.452 260.575, 71.593 264.371, 73.334 265.435 C 75.075 266.500, 76.275 267.105, 76 266.780 C 75.725 266.455, 72.575 264.044, 69 261.422 C 65.425 258.800, 59.892 254.370, 56.705 251.578 C 53.518 248.785, 48.083 243.125, 44.627 239 C 41.171 234.875, 36.852 229.300, 35.028 226.610 C 33.204 223.921, 29.535 217.621, 26.875 212.610 C 24.215 207.600, 22.030 203.850, 22.019 204.279 M 148 208 C 148 208.550, 148.648 209, 149.441 209 C 150.234 209, 151.160 208.550, 151.500 208 C 151.840 207.450, 151.191 207, 150.059 207 C 148.927 207, 148 207.450, 148 208 M 269 216 C 267.878 218.200, 267.184 220, 267.459 220 C 267.734 220, 268.878 218.200, 270 216 C 271.122 213.800, 271.816 212, 271.541 212 C 271.266 212, 270.122 213.800, 269 216 M 261.427 228.211 C 258.717 232.177, 252.720 239.394, 248.099 244.250 C 243.479 249.106, 236.272 255.648, 232.084 258.789 C 227.896 261.930, 223.351 265.300, 221.985 266.279 C 220.385 267.424, 220.220 267.722, 221.522 267.116 C 222.634 266.598, 226.459 264.039, 230.022 261.430 C 233.585 258.821, 240.249 253.045, 244.831 248.593 C 249.413 244.142, 255.545 237.350, 258.457 233.500 C 261.370 229.650, 264.536 225.262, 265.492 223.750 C 266.448 222.238, 267.033 221, 266.792 221 C 266.550 221, 264.136 224.245, 261.427 228.211 M 64.500 233.467 C 60.500 236.873, 60.500 236.873, 63.718 240.135 C 65.488 241.929, 67.248 243.086, 67.628 242.705 C 68.009 242.324, 67.502 241.107, 66.500 240 C 65.498 238.893, 64.973 237.693, 65.333 237.333 C 65.693 236.973, 66.815 237.427, 67.825 238.342 C 68.836 239.256, 69.964 239.702, 70.333 239.333 C 70.702 238.964, 70.256 237.836, 69.342 236.825 C 68.427 235.815, 67.973 234.693, 68.333 234.333 C 68.693 233.973, 69.893 234.498, 71 235.500 C 72.107 236.502, 73.324 237.009, 73.705 236.628 C 74.086 236.248, 73.071 234.614, 71.449 232.999 C 68.500 230.061, 68.500 230.061, 64.500 233.467 M 72.625 241.872 C 68.851 245.737, 68.851 245.737, 71.560 247.869 C 73.050 249.041, 75.092 250, 76.096 250 C 77.100 250, 78.840 249.015, 79.961 247.811 C 81.082 246.608, 82 245.117, 82 244.499 C 82 243.880, 80.740 242.167, 79.199 240.691 C 76.398 238.008, 76.398 238.008, 72.625 241.872 M 220 238.590 C 220 238.915, 221.238 240.930, 222.750 243.069 C 224.262 245.208, 225.812 246.967, 226.194 246.979 C 226.576 246.990, 228.151 245.913, 229.694 244.585 C 231.237 243.257, 232.206 241.876, 231.847 241.516 C 231.488 241.156, 230.276 241.435, 229.153 242.136 C 227.356 243.259, 226.856 243.087, 224.983 240.706 C 223.813 239.218, 222.213 238, 221.427 238 C 220.642 238, 220 238.266, 220 238.590 M 213.536 243.382 C 210.571 245.754, 210.571 245.754, 213.300 249.877 C 214.801 252.145, 216.359 253.998, 216.764 253.995 C 217.169 253.992, 218.850 252.908, 220.500 251.585 C 222.150 250.262, 223.201 248.877, 222.836 248.509 C 222.470 248.140, 221.194 248.361, 220 249 C 218.806 249.639, 217.530 249.864, 217.166 249.499 C 216.801 249.135, 217.370 248.203, 218.429 247.429 C 219.488 246.654, 220.088 245.755, 219.763 245.429 C 219.437 245.104, 218.233 245.340, 217.086 245.954 C 215.939 246.568, 215 246.660, 215 246.158 C 215 245.656, 215.675 244.685, 216.500 244 C 217.325 243.315, 218 242.360, 218 241.878 C 218 241.395, 217.662 241.002, 217.250 241.005 C 216.838 241.008, 215.166 242.077, 213.536 243.382 M 75.200 243.200 C 74.540 243.860, 74 244.985, 74 245.700 C 74 246.415, 74.620 247, 75.378 247 C 76.135 247, 77.299 246.345, 77.964 245.544 C 78.628 244.743, 78.882 243.618, 78.527 243.044 C 78.172 242.470, 77.549 242, 77.141 242 C 76.733 242, 75.860 242.540, 75.200 243.200 M 82.009 248.485 C 80.771 250.488, 80.107 252.762, 80.447 253.833 C 80.772 254.858, 82.181 256.217, 83.576 256.853 C 85.194 257.590, 86.728 257.677, 87.807 257.093 C 88.738 256.589, 90.295 254.818, 91.266 253.157 C 92.484 251.074, 92.691 249.927, 91.932 249.458 C 91.326 249.084, 89.556 250.290, 87.998 252.139 C 85.894 254.634, 84.869 255.212, 84.016 254.384 C 83.154 253.546, 83.370 252.440, 84.882 249.954 C 85.990 248.132, 86.668 246.272, 86.389 245.821 C 86.110 245.369, 85.495 245, 85.023 245 C 84.550 245, 83.194 246.568, 82.009 248.485 M 203.200 249.200 C 202.540 249.860, 202 251.590, 202 253.045 C 202 254.500, 202.823 256.435, 203.829 257.345 C 204.835 258.255, 206.410 259, 207.329 259 C 208.248 259, 209.900 258.100, 211 257 C 212.100 255.900, 213 254.550, 213 254 C 213 253.450, 212.487 253, 211.860 253 C 211.233 253, 210.173 253.748, 209.505 254.662 C 208.758 255.685, 207.629 256.071, 206.574 255.667 C 205.496 255.253, 204.979 254.172, 205.180 252.754 C 205.385 251.312, 206.189 250.500, 207.414 250.500 C 208.467 250.500, 209.517 249.938, 209.747 249.250 C 210.018 248.442, 209.147 248, 207.283 248 C 205.697 248, 203.860 248.540, 203.200 249.200 M 195.995 254.009 C 195.192 255.511, 194.299 255.862, 192.460 255.401 C 190.991 255.032, 190 255.216, 190 255.856 C 190 256.447, 190.943 257.434, 192.095 258.051 C 193.823 258.976, 194.079 259.768, 193.553 262.571 C 193.043 265.286, 193.205 265.858, 194.359 265.416 C 195.153 265.111, 196.039 263.959, 196.327 262.856 C 196.750 261.242, 197.218 261.046, 198.730 261.855 C 199.763 262.408, 201.205 262.491, 201.936 262.040 C 202.937 261.421, 202.595 260.781, 200.542 259.435 C 198.324 257.982, 197.924 257.129, 198.385 254.826 C 198.696 253.272, 198.527 252, 198.010 252 C 197.493 252, 196.587 252.904, 195.995 254.009 M 94.313 253.786 C 93.659 254.201, 92.679 255.714, 92.133 257.149 C 91.389 259.108, 91.512 260.286, 92.628 261.879 C 93.585 263.246, 95.189 264, 97.140 264 C 99.118 264, 100.021 263.567, 99.747 262.750 C 99.517 262.063, 98.692 261.488, 97.914 261.474 C 97.136 261.459, 95.936 261.094, 95.247 260.663 C 94.334 260.091, 94.275 259.354, 95.032 257.939 C 95.603 256.873, 96.582 256, 97.206 256 C 97.831 256, 99.165 256.745, 100.171 257.655 C 101.888 259.209, 102 259.180, 102 257.190 C 102 256.024, 101.130 254.605, 100.066 254.035 C 99.002 253.466, 97.539 253.007, 96.816 253.015 C 96.092 253.024, 94.966 253.370, 94.313 253.786 M 183.250 258.119 C 181.463 258.635, 180 259.555, 180 260.163 C 180 260.771, 180.521 263.008, 181.158 265.134 C 181.795 267.260, 182.853 269, 183.509 269 C 184.165 269, 186.119 268.506, 187.851 267.902 C 189.583 267.298, 191 266.363, 191 265.823 C 191 265.252, 189.743 265.117, 188 265.500 C 185.997 265.940, 185 265.769, 185 264.986 C 185 264.341, 185.900 263.577, 187 263.290 C 188.100 263.002, 189 262.320, 189 261.775 C 189 261.216, 187.908 261.057, 186.500 261.411 C 185.125 261.756, 184 261.610, 184 261.086 C 184 260.563, 184.900 259.849, 186 259.500 C 187.100 259.151, 188 258.446, 188 257.933 C 188 257.420, 187.662 257.041, 187.250 257.090 C 186.838 257.140, 185.037 257.603, 183.250 258.119 M 104.656 261.840 C 102.645 263.900, 101 265.903, 101 266.292 C 101 266.681, 102.413 267, 104.140 267 C 105.975 267, 107.811 267.727, 108.558 268.748 C 109.261 269.710, 110.056 270.273, 110.325 269.998 C 110.593 269.724, 111.125 267.402, 111.507 264.839 C 112.103 260.832, 111.928 260.032, 110.256 259.137 C 108.635 258.269, 107.704 258.718, 104.656 261.840 M 115 261.800 C 115 262.240, 115.486 263.086, 116.080 263.680 C 116.830 264.430, 116.855 265.866, 116.161 268.380 C 115.279 271.574, 115.374 272, 116.969 272 C 118.243 272, 118.971 270.969, 119.431 268.515 C 119.991 265.530, 120.453 265.060, 122.647 265.242 C 125.054 265.441, 125.175 265.705, 124.641 269.605 C 124.072 273.756, 124.072 273.756, 128.169 274.411 C 130.423 274.771, 132.477 274.856, 132.734 274.600 C 132.990 274.343, 132.904 273.653, 132.541 273.067 C 132.179 272.480, 131.009 272, 129.941 272 C 128.873 272, 128 271.550, 128 271 C 128 270.450, 129.125 270, 130.500 270 C 131.875 270, 133 269.550, 133 269 C 133 268.450, 131.875 268, 130.500 268 C 129.125 268, 128 267.550, 128 267 C 128 266.450, 129.350 266, 131 266 C 132.650 266, 134 265.550, 134 265 C 134 264.450, 132.032 264, 129.626 264 C 127.220 264, 123.338 263.325, 121 262.500 C 118.662 261.675, 116.355 261, 115.874 261 C 115.393 261, 115 261.360, 115 261.800 M 107.583 262.866 C 107.152 263.563, 107.070 264.403, 107.400 264.733 C 107.730 265.063, 108.272 265.061, 108.604 264.729 C 108.936 264.397, 109.019 263.557, 108.787 262.862 C 108.449 261.846, 108.213 261.846, 107.583 262.866 M 166.635 262.712 C 165.092 263.108, 164.874 263.822, 165.374 266.846 C 165.706 268.855, 165.983 271.063, 165.989 271.750 C 165.995 272.438, 167.155 273, 168.566 273 C 169.977 273, 172.002 272.534, 173.066 271.965 C 174.294 271.308, 175 269.873, 175 268.036 C 175 266.445, 174.293 264.436, 173.429 263.571 C 172.564 262.707, 171.102 262.052, 170.179 262.116 C 169.255 262.180, 167.661 262.448, 166.635 262.712 M 158.967 266.750 C 158.933 269.500, 158.933 269.500, 157.056 267.250 C 156.024 266.012, 154.464 265, 153.590 265 C 152.447 265, 152 265.961, 152 268.418 C 152 270.298, 152.273 272.548, 152.607 273.418 C 152.941 274.288, 153.849 275, 154.626 275 C 155.660 275, 155.861 274.263, 155.378 272.250 C 154.718 269.500, 154.718 269.500, 157.173 271.750 C 158.524 272.988, 160.444 274, 161.439 274 C 162.934 274, 163.141 273.454, 162.625 270.875 C 162.281 269.156, 162 266.906, 162 265.875 C 162 264.844, 161.325 264, 160.500 264 C 159.538 264, 158.988 264.987, 158.967 266.750 M 141.569 268.250 C 140.838 270.038, 139.930 272.512, 139.552 273.750 C 139.134 275.119, 139.288 276, 139.946 276 C 140.541 276, 141.921 275.442, 143.014 274.759 C 144.580 273.781, 145.413 273.777, 146.954 274.739 C 148.028 275.410, 149.155 275.559, 149.457 275.070 C 149.759 274.581, 149.121 272.115, 148.039 269.590 C 146.882 266.892, 145.417 265, 144.485 265 C 143.612 265, 142.300 266.462, 141.569 268.250 M 168.545 267.250 C 168.919 268.488, 169.609 269.913, 170.080 270.417 C 170.584 270.958, 171.197 270.650, 171.574 269.667 C 171.926 268.750, 171.955 267.325, 171.638 266.500 C 171.322 265.675, 170.343 265, 169.464 265 C 168.271 265, 168.038 265.571, 168.545 267.250 M 77.425 267.878 C 77.685 268.300, 82.209 270.813, 87.476 273.462 C 92.744 276.112, 97.213 278.104, 97.408 277.890 C 97.602 277.675, 93.079 275.163, 87.356 272.306 C 81.633 269.449, 77.164 267.456, 77.425 267.878 M 214.750 270.068 C 212.688 271.157, 211 272.271, 211 272.544 C 211 272.817, 212.800 272.122, 215 271 C 217.200 269.878, 219 268.743, 219 268.480 C 219 268.216, 218.887 268.020, 218.750 268.044 C 218.613 268.069, 216.813 268.979, 214.750 270.068 M 143.553 269.915 C 143.231 270.436, 143.394 271.125, 143.915 271.447 C 144.436 271.769, 145.125 271.606, 145.447 271.085 C 145.769 270.564, 145.606 269.875, 145.085 269.553 C 144.564 269.231, 143.875 269.394, 143.553 269.915 M 204 275.500 C 202.625 276.286, 201.950 276.929, 202.500 276.929 C 203.050 276.929, 204.625 276.286, 206 275.500 C 207.375 274.714, 208.050 274.071, 207.500 274.071 C 206.950 274.071, 205.375 274.714, 204 275.500 M 198 278 C 197.175 278.533, 196.950 278.969, 197.500 278.969 C 198.050 278.969, 199.175 278.533, 200 278 C 200.825 277.467, 201.050 277.031, 200.500 277.031 C 199.950 277.031, 198.825 277.467, 198 278 M 99 278.456 C 99 278.708, 102.623 280.058, 107.052 281.456 C 111.480 282.855, 115.643 283.967, 116.302 283.928 C 116.961 283.888, 113.450 282.547, 108.500 280.948 C 103.550 279.349, 99.388 278.031, 99.250 278.020 C 99.112 278.009, 99 278.205, 99 278.456 M 187 281.531 C 182.875 282.807, 180.126 283.885, 180.892 283.926 C 181.658 283.967, 185.370 283.081, 189.142 281.958 C 192.914 280.834, 196 279.709, 196 279.458 C 196 279.206, 195.662 279.047, 195.250 279.105 C 194.838 279.163, 191.125 280.254, 187 281.531 M 124.269 285.693 C 125.242 285.947, 126.592 285.930, 127.269 285.656 C 127.946 285.382, 127.150 285.175, 125.500 285.195 C 123.850 285.215, 123.296 285.439, 124.269 285.693 M 171.269 285.693 C 172.242 285.947, 173.592 285.930, 174.269 285.656 C 174.946 285.382, 174.150 285.175, 172.500 285.195 C 170.850 285.215, 170.296 285.439, 171.269 285.693 M 133 287.176 C 135.475 287.548, 142.450 287.846, 148.500 287.838 C 154.550 287.831, 161.750 287.527, 164.500 287.162 C 167.250 286.798, 160.275 286.500, 149 286.500 C 137.725 286.500, 130.525 286.804, 133 287.176"
        stroke="none" fill="#ffffff" fill-rule="evenodd" />
</svg>