<svg xmlns="http://www.w3.org/2000/svg" height="32" width="32" viewBox="0 0 32 32">
    <defs>
        <clipPath id="clipShadow">
            <path d="M -4 28 A 24 54 3 1 1 36 28 A 24 24 3 0 0 -4 28 Z" fill="rgba(0,0,0,0.2)" />
        </clipPath>
        <clipPath id="clipEye">
            <circle cx="16" cy="0" r="24" />
        </clipPath>
        <clipPath id="clipInnerEye">
            <circle cx="16" cy="16" r="9" />
        </clipPath>
    </defs>
    <!--LASHES-->
    <path d="M 8 8 L 3 3 M 5 10 L 2 7 M 10 5 L 7 2" stroke-width="1.5" stroke-linecap="round" stroke-linejoin="round" stroke="#191919" fill="transparent" />
    <!--SCLERA-->
    <circle cx="16" cy="16" r="12" fill="#ffffff" />
    <!--IRIS-->
    <circle cx="16" cy="16" r="9" fill="#08c2c6" />
    <circle cx="16" cy="16" r="5" fill="#17898b" />
    <ellipse cx="16" cy="24" rx="4" ry="3" fill="#1cb0b3" clip-path="url(#clipInnerEye)" />
    <circle cx="16" cy="16" r="9" stroke-width="1" stroke="#0e6e70" fill="transparent" />
    <!--PUPIL-->
    <!--    <ellipse cx="16" cy="16" rx="2" ry="6" fill="#2e0324" />-->
    <path d="M 10 16 Q 16 16 16 24 Q 16 16 22 16 Q 16 16 16 8 Q 16 16 10 16 Z" fill="#095052" />
    <!--SHADOW-->
    <circle clip-path="url(#clipShadow)" cx="16" cy="16" r="12" fill="rgba(0,0,0,0.2)" />
    <!--HIGHLIGHTS-->
    <ellipse cx="22" cy="16" rx="3.5" ry="2" fill="#ffffff" />
    <circle cx="12" cy="12" r="1.5" fill="#ffffff" />
    <!--OUTER STUFF-->
    <circle clip-path="url(#clipEye)" cx="16" cy="16" r="12" stroke="#191919" fill="transparent" />
</svg> 