<svg xmlns="http://www.w3.org/2000/svg" height="320" width="320" viewBox="0 0 64 76">
    <defs>
        <clipPath id="clipShadow">
            <path d="M -4 28 A 24 54 3 1 1 36 28 A 24 24 3 0 0 -4 28 Z" fill="rgba(0,0,0,0.2)" />
        </clipPath>
        <clipPath id="clipEye">
            <circle cx="16" cy="0" r="24" />
        </clipPath>
        <clipPath id="clipInnerEye">
            <circle cx="16" cy="16" r="9" />
        </clipPath>
    </defs>
    <!--CIRCLES-->
    <g>
        <circle cx="25" cy="40" r="1" />
        <circle cx="20" cy="32" r="1" />
        <circle cx="8" cy="42" r="2" />
        <circle cx="4" cy="32" r="2" />
        <circle cx="6" cy="20" r="1" />
        <circle cx="16" cy="16" r="3" />
        <circle cx="24" cy="10" r="1" />
        <circle cx="32" cy="17" r="3" />
        <circle cx="40" cy="13" r="1" />
        <circle cx="48" cy="14" r="1" />
        <circle cx="52" cy="21" r="3" />
        <circle cx="52" cy="35" r="1" />
        <circle cx="46" cy="34" r="1" />
        <circle cx="42" cy="28" r="1" />
        <circle cx="30" cy="31" r="2" />
    </g>
    <g>
        <path
            d="M 29 58 L 22 60 L 42 60 L 35 58 C 30 40 35 36 46 34 C 36 34 32 40 32 42 L 30 31 L 29 42 L 25 40 C 29 46 30 40 29 58 Z" />
    </g>

</svg> 